<svg version="1.1" id="Layer_1" xmlns="http://www.w3.org/2000/svg" xmlns:xlink="http://www.w3.org/1999/xlink" x="0px" y="0px"
	 width="100%" viewBox="0 0 543 147" enable-background="new 0 0 543 147" xml:space="preserve">
<path fill="#F4F6F7" opacity="1.000000" stroke="none" 
	d="
M544.000000,47.000000 
	C544.000000,50.692909 544.000000,54.385818 543.532166,58.570877 
	C532.114502,59.070179 521.164368,59.037598 510.215179,59.125259 
	C508.477448,59.139172 506.744049,59.694492 504.623260,60.090073 
	C502.598511,63.570839 501.428528,66.929138 505.124634,70.353912 
	C518.230835,70.823936 531.115417,70.911964 544.000000,71.000000 
	C544.000000,72.066673 544.000000,73.133339 543.536621,74.675583 
	C530.511597,75.151146 517.949951,75.151146 505.146332,75.151146 
	C505.146332,78.999947 505.146332,82.381279 505.146332,86.000000 
	C518.234497,86.000000 531.117249,86.000000 544.000000,86.000000 
	C544.000000,87.066673 544.000000,88.133339 543.533264,89.551788 
	C405.540833,89.892624 268.015137,89.882179 130.489456,89.866264 
	C128.326202,89.866013 126.162941,89.798500 123.943008,89.585770 
	C123.778603,89.146545 123.582848,89.018585 123.372070,88.636337 
	C124.978462,87.554146 126.510002,86.260437 128.045532,86.255684 
	C164.497513,86.142654 200.949905,86.168205 237.402237,86.168472 
	C239.163467,86.168488 240.924683,86.168480 242.685913,86.168480 
	C242.684647,85.708626 242.683365,85.248779 242.682083,84.788925 
	C203.131546,84.788925 163.580994,84.788925 123.926804,84.613945 
	C123.628136,84.246506 123.407310,84.090569 123.100677,83.596596 
	C122.366394,82.830132 121.692131,82.438225 120.962997,81.657501 
	C117.556046,75.820419 119.293770,70.072449 119.255180,64.467232 
	C121.270538,64.297333 122.625137,64.183144 124.433975,64.099403 
	C129.131393,63.807564 133.758224,65.001305 137.572815,61.157497 
	C132.086700,61.157497 127.092171,61.157497 121.871399,60.847809 
	C120.763535,58.746307 119.261002,57.001423 119.121353,55.153538 
	C118.760071,50.373108 119.190308,45.537109 118.934990,40.742973 
	C118.754776,37.359104 119.339500,34.551731 122.560806,32.599770 
	C127.606102,32.746857 132.359314,33.072224 137.078217,32.800770 
	C138.485443,32.719818 139.796509,30.966702 141.476471,29.984554 
	C142.234238,30.004793 142.667130,30.020206 143.101807,30.414764 
	C145.087723,32.603157 155.596237,33.806858 157.513397,32.284218 
	C157.979462,31.914068 157.850052,30.794142 158.058594,29.666553 
	C159.745087,28.303139 161.367416,27.292141 163.441437,26.192474 
	C167.264908,26.162905 170.636719,26.222006 174.014923,26.607533 
	C174.397827,27.663523 174.774323,28.393087 174.872375,29.356995 
	C173.194168,30.004328 171.794418,30.417316 169.907257,30.974110 
	C174.380585,33.854244 179.601685,33.607754 181.947754,30.634886 
	C180.181778,30.154083 178.534515,29.705597 177.009201,28.956177 
	C177.417816,27.863901 177.704483,27.072561 178.423035,26.192739 
	C180.906036,26.163166 182.957169,26.222075 185.008362,26.666367 
	C184.565247,29.203577 184.122025,31.355408 183.451157,34.612556 
	C187.686615,32.632023 189.875702,29.993608 191.453400,26.192192 
	C211.612778,26.162636 231.310669,26.221964 251.010254,26.660866 
	C251.041840,27.805204 251.071701,28.569971 251.082520,29.731022 
	C252.041245,31.032141 253.006622,32.681309 253.999207,32.697849 
	C256.643921,32.741909 259.881531,34.076538 262.369629,31.019499 
	C260.027527,29.978979 258.450562,29.278399 256.900269,28.004997 
	C256.925415,27.049891 256.923950,26.667604 257.332764,26.198732 
	C279.204498,26.099863 300.666016,26.056759 322.127502,26.084536 
	C341.087860,26.109076 360.048157,26.212626 379.018066,26.597757 
	C379.456177,27.453957 379.884644,27.993690 380.313141,28.533422 
	C380.539307,27.782711 380.765472,27.032001 381.453186,26.192478 
	C401.694244,26.094208 421.473816,26.063126 441.253357,26.080107 
	C475.158722,26.109215 509.064056,26.168369 542.978577,26.413818 
	C542.987732,26.612732 542.998535,27.012415 543.111023,27.226547 
	C543.427734,27.702881 543.686584,27.889322 544.000000,28.000000 
	C544.000000,30.700014 544.000000,33.400028 543.531372,36.550167 
	C531.931458,37.000957 520.798035,37.129944 509.670135,36.938591 
	C505.270538,36.862934 505.054932,39.270870 504.915100,42.643864 
	C504.763458,46.302662 506.294006,47.103397 509.610321,47.059105 
	C521.071716,46.906017 532.536499,47.000050 544.000000,47.000000 
M388.529114,47.000610 
	C423.300354,47.000530 458.071686,46.958149 492.842621,47.062778 
	C496.507202,47.073799 498.184143,46.418331 498.155548,42.181114 
	C498.127014,37.961468 496.778778,36.884586 492.705780,36.916000 
	C469.914520,37.091801 447.121185,37.000385 424.328583,37.000504 
	C410.353546,37.000580 396.377838,36.940155 382.404480,37.092537 
	C380.953125,37.108364 378.587738,38.073780 378.227020,39.135574 
	C376.336670,44.699692 378.194397,46.986305 384.049683,47.000183 
	C385.214264,47.002945 386.378845,47.000603 388.529114,47.000610 
M310.500000,37.000458 
	C292.532837,37.000481 274.565216,37.069225 256.598938,36.943310 
	C252.948029,36.917721 250.757431,37.180920 250.833710,41.878761 
	C250.903427,46.172356 252.358597,47.093304 256.349274,47.078716 
	C292.782166,46.945515 329.215942,46.945473 365.648834,47.078659 
	C369.639099,47.093246 371.094421,46.173805 371.164032,41.879532 
	C371.240204,37.183075 369.053497,36.917454 365.401031,36.943134 
	C347.434784,37.069450 329.467133,37.000481 310.500000,37.000458 
M305.500000,78.999695 
	C325.796234,78.999535 346.093262,78.904579 366.387939,79.081963 
	C370.284973,79.116013 371.214142,77.706009 371.087830,74.131149 
	C370.975433,70.951057 370.897278,68.898331 366.658051,68.915222 
	C329.559753,69.063026 292.460419,69.062637 255.362137,68.915138 
	C251.149628,68.898384 251.006561,70.901085 250.908936,74.109962 
	C250.801086,77.655853 251.663101,79.131744 255.590439,79.083359 
	C271.891510,78.882523 288.196472,78.999420 305.500000,78.999695 
M439.500000,68.998474 
	C420.700897,68.998543 401.901062,69.082916 383.103241,68.927490 
	C379.346497,68.896431 377.731934,69.717155 377.869568,73.876076 
	C377.991608,77.562843 378.665283,79.113029 382.847992,79.094551 
	C419.613647,78.932083 456.380676,78.932510 493.146332,79.094536 
	C497.320221,79.112930 498.014435,77.580040 498.131104,73.882584 
	C498.261902,69.736061 496.672760,68.891144 492.903931,68.926407 
	C475.437256,69.089882 457.968201,68.998558 439.500000,68.998474 
M145.413177,47.000610 
	C149.530502,47.331493 153.645462,47.696423 157.765793,47.984310 
	C162.510056,48.315792 161.908524,44.923889 162.028229,41.909992 
	C162.146332,38.936314 161.954300,36.833244 157.929947,36.924404 
	C147.621216,37.157921 137.300186,37.157692 126.991379,36.925674 
	C122.874542,36.833019 122.952003,39.112343 122.961731,41.989574 
	C122.971375,44.840534 122.820831,47.265091 126.970520,47.068256 
	C132.779846,46.792706 138.612076,46.999924 145.413177,47.000610 
M166.017029,39.725136 
	C166.908478,42.219669 163.671448,46.696362 169.193497,46.950809 
	C179.452942,47.423550 189.729187,47.542122 199.986038,48.055733 
	C204.074844,48.260479 204.234360,45.951706 203.993774,43.044235 
	C203.769974,40.339500 205.269241,36.815403 200.071930,36.934685 
	C189.936340,37.167301 179.790833,36.943291 169.651871,37.084190 
	C168.456238,37.100807 167.275894,38.219246 166.017029,39.725136 
M144.386978,68.999527 
	C138.256714,69.003799 132.125839,69.062439 125.996460,68.991051 
	C122.567429,68.951111 122.990471,71.331688 123.017235,73.452728 
	C123.043304,75.519081 122.439079,78.015404 125.903214,77.997421 
	C133.193039,77.959572 140.488373,78.123985 147.767746,77.846283 
	C148.880051,77.803848 150.578064,75.999229 150.873154,74.743599 
	C151.908112,70.339630 150.028610,68.185738 144.386978,68.999527 
M165.541809,77.999619 
	C170.188675,77.998642 174.839966,77.872498 179.480957,78.037239 
	C183.038620,78.163506 184.003784,76.493790 184.076447,73.207161 
	C184.149124,69.919815 182.980865,68.847008 179.746887,68.943497 
	C173.280212,69.136444 166.796432,69.185448 160.334167,68.929085 
	C156.652969,68.783058 155.961960,70.338585 155.897141,73.619720 
	C155.825821,77.230812 157.226944,78.393272 160.578568,78.022644 
	C161.890198,77.877602 163.231293,77.999321 165.541809,77.999619 
M227.495621,55.999695 
	C233.103256,56.892368 239.264587,53.814281 244.452240,58.428692 
	C244.452240,56.412964 244.452240,54.490662 244.452240,53.395409 
	C241.622253,53.983864 239.209137,54.916862 236.793579,54.923191 
	C200.987183,55.016972 165.180374,55.019844 129.374039,54.913788 
	C127.063866,54.906944 124.756828,53.835758 122.348061,53.234661 
	C122.348061,54.608795 122.348061,56.482803 122.348061,57.719452 
	C124.946877,57.100540 127.256767,56.078228 129.569946,56.070721 
	C161.878860,55.965862 194.188202,55.999668 227.495621,55.999695 
M516.895935,32.887989 
	C517.842468,32.424786 518.789001,31.961582 519.735535,31.498379 
	C519.600952,31.163502 519.466431,30.828627 519.331848,30.493752 
	C514.958191,30.493752 510.584503,30.493752 506.210846,30.493752 
	C506.156189,31.104929 506.101501,31.716108 506.046814,32.327286 
	C509.374390,32.516590 512.701965,32.705898 516.895935,32.887989 
M188.917221,61.205795 
	C186.328262,61.205795 183.739304,61.205795 181.150345,61.205795 
	C181.159760,61.866241 181.169174,62.526688 181.178589,63.187134 
	C185.076126,63.187134 188.973648,63.187134 192.871185,63.187134 
	C192.934677,62.750038 192.998169,62.312943 193.061661,61.875847 
	C191.948410,61.623089 190.835159,61.370335 188.917221,61.205795 
M528.313904,30.029737 
	C526.048767,29.862810 523.783630,29.695883 519.769836,29.400091 
	C521.508606,31.162628 522.372986,32.751492 523.175415,32.720833 
	C525.760437,32.622078 528.322571,31.926371 530.893555,31.460825 
	C530.319275,30.993887 529.744995,30.526949 528.313904,30.029737 
M159.962158,63.298641 
	C159.850998,62.459534 159.739822,61.620426 159.628662,60.781322 
	C159.150452,61.044441 158.672241,61.307564 158.194031,61.570686 
	C158.732071,62.364174 159.270096,63.157661 159.962158,63.298641 
z"/>
<path fill="#034D8C" opacity="1.000000" stroke="none" 
	d="
M542.969421,26.214905 
	C509.064056,26.168369 475.158722,26.109215 441.253357,26.080107 
	C421.473816,26.063126 401.694244,26.094208 381.125671,26.114639 
	C379.893951,26.177507 379.451233,26.229399 379.008484,26.281292 
	C360.048157,26.212626 341.087860,26.109076 322.127502,26.084536 
	C300.666016,26.056759 279.204498,26.099863 256.975372,26.121620 
	C254.474701,26.181158 252.741623,26.231226 251.008560,26.281292 
	C231.310669,26.221964 211.612778,26.162636 191.031372,26.112556 
	C188.434677,26.174868 186.721481,26.227926 185.008286,26.280983 
	C182.957169,26.222075 180.906036,26.163166 178.029510,26.113148 
	C176.138901,26.175062 175.073715,26.228085 174.008530,26.281107 
	C170.636719,26.222006 167.264908,26.162905 163.060989,26.112747 
	C148.442001,26.181297 134.655106,26.240910 120.475853,26.217350 
	C104.397697,26.092365 88.711914,26.050550 72.632080,26.107288 
	C71.824371,28.031572 71.052956,29.856676 71.049721,31.683138 
	C70.981178,70.455330 70.999008,109.227684 71.000000,148.000000 
	C47.717808,148.000000 24.435616,148.000000 1.000000,148.000000 
	C1.000000,104.979218 1.000000,61.958267 1.406919,18.368114 
	C3.924467,17.556324 6.035041,17.101931 8.145730,17.101395 
	C142.578201,17.067316 277.010681,17.070210 411.443146,17.068800 
	C412.942322,17.068783 414.498077,17.296238 415.920044,16.961487 
	C416.808716,16.752277 417.495850,15.686720 418.722412,15.003820 
	C460.780914,15.001474 502.390472,15.000737 544.000000,15.000000 
	C544.000000,18.361288 544.000000,21.722574 543.734131,25.556145 
	C543.301941,26.090586 543.135681,26.152746 542.969421,26.214905 
M26.144896,42.395370 
	C25.424362,42.759575 24.703829,43.123783 23.983295,43.487991 
	C24.512133,43.895691 25.031467,44.643192 25.571280,44.658283 
	C30.709679,44.801949 35.851784,44.865437 40.992222,44.838409 
	C41.987061,44.833176 42.979301,44.334892 44.343449,43.962982 
	C41.247135,41.668102 35.161316,41.247284 26.144896,42.395370 
M21.781685,106.097298 
	C20.290951,106.097298 18.800219,106.097298 16.386847,106.097298 
	C20.364433,109.477989 33.673820,109.609093 37.784023,106.141655 
	C32.010033,106.141655 27.364674,106.141655 21.781685,106.097298 
M44.661015,83.896584 
	C44.553314,83.066559 44.460041,81.512878 44.335842,81.510399 
	C38.368916,81.391449 32.399311,81.406509 26.430012,81.406509 
	C26.364998,81.955544 26.299984,82.504578 26.234970,83.053612 
	C31.849024,85.189362 37.984608,83.480583 44.661015,83.896584 
M8.920691,130.110291 
	C8.319898,130.707260 7.719105,131.304230 6.346092,132.668518 
	C14.143333,132.668518 20.594088,132.668518 27.044844,132.668518 
	C26.389200,131.535568 25.601688,131.053940 24.789984,131.008987 
	C19.751719,130.729858 14.708023,130.548752 8.920691,130.110291 
M54.044540,41.998978 
	C51.322433,41.790527 48.600323,41.582073 45.044689,41.309795 
	C45.477009,42.540409 45.527245,43.980877 46.224766,44.441811 
	C49.074600,46.325020 55.392078,44.821106 58.095024,41.998478 
	C57.116657,41.998478 55.977242,41.998478 54.044540,41.998978 
M27.035414,119.336540 
	C24.038849,119.026779 21.036327,118.432716 18.047567,118.495338 
	C15.564542,118.547379 13.097705,119.371933 10.623697,119.854279 
	C10.710159,120.074654 10.796621,120.295021 10.883083,120.515396 
	C17.120028,120.515396 23.356970,120.515396 29.593914,120.515396 
	C29.625050,120.223511 29.656183,119.931625 29.687319,119.639740 
	C29.040319,119.440231 28.393322,119.240723 27.035414,119.336540 
M21.802387,43.406139 
	C18.733652,42.610104 15.664916,41.814064 12.375587,40.960804 
	C13.056856,44.746876 15.536982,45.464947 21.802387,43.406139 
z"/>
<path fill="#F4F6F7" opacity="1.000000" stroke="none" 
	d="
M129.000000,148.000000 
	C126.958336,148.000000 124.916664,148.000000 122.474419,147.532471 
	C122.061081,130.711823 122.048325,114.358696 122.262680,97.789474 
	C122.223083,94.248390 124.634560,94.975685 126.490150,94.975708 
	C265.660095,94.977425 404.830048,94.989105 544.000000,95.000000 
	C544.000000,112.604607 544.000000,130.209213 544.000000,148.000000 
	C520.312744,148.000000 496.625031,148.000000 472.469055,147.562561 
	C472.000519,145.083832 472.000244,143.042526 471.998962,140.557449 
	C471.997833,137.749969 471.997681,135.386246 471.998596,132.581482 
	C471.993774,130.071915 471.987854,128.003372 471.982605,125.620697 
	C471.984619,124.886673 471.985992,124.466797 471.991669,123.589767 
	C471.967712,111.785370 473.072937,113.009903 461.788696,113.008331 
	C354.456573,112.993340 247.124466,112.987846 139.792343,113.015366 
	C127.668976,113.018471 129.057602,111.478477 129.014740,124.363739 
	C129.017349,125.092209 129.019272,125.508598 129.014923,126.368439 
	C129.006790,128.883636 129.004913,130.955383 129.004333,133.469574 
	C129.003723,136.275085 129.001862,138.638153 129.000244,141.438629 
	C129.000336,143.917358 129.000168,145.958679 129.000000,148.000000 
M238.140106,103.119072 
	C235.460190,103.915871 232.780258,104.712662 229.674118,105.636177 
	C232.732941,107.933464 238.295654,107.855164 239.868439,105.790016 
	C240.129181,105.447655 239.201889,104.200500 238.140106,103.119072 
M178.046112,105.995461 
	C178.267502,106.859924 178.488907,107.724388 178.710297,108.588852 
	C179.090775,108.567909 179.471252,108.546967 179.851730,108.526024 
	C179.738785,106.178207 179.625854,103.830391 179.512924,101.482574 
	C179.143616,101.415855 178.774323,101.349129 178.405029,101.282410 
	C178.127518,102.718880 177.850006,104.155357 178.046112,105.995461 
M131.093719,105.388222 
	C130.917877,104.746864 130.742020,104.105515 130.566177,103.464157 
	C130.247314,103.623756 129.928467,103.783363 129.609604,103.942963 
	C130.059860,104.663048 130.510117,105.383125 131.093719,105.388222 
M195.899277,107.142555 
	C195.651398,106.822914 195.403534,106.503273 195.155655,106.183624 
	C194.948608,106.354202 194.741562,106.524780 194.534515,106.695366 
	C194.869736,106.984764 195.204956,107.274162 195.899277,107.142555 
M174.423386,103.487534 
	C174.423386,103.487534 174.518860,103.431305 174.423386,103.487534 
z"/>
<path fill="#FFFFFF" opacity="1.000000" stroke="none" 
	d="
M73.026123,26.008738 
	C88.711914,26.050550 104.397697,26.092365 120.508957,26.641020 
	C120.955482,27.430353 120.976540,27.712847 120.632332,27.996120 
	C119.175583,28.330465 118.084091,28.664028 116.600082,29.095791 
	C115.805481,30.361258 115.058266,31.527014 115.053169,32.696011 
	C114.977791,49.963715 114.945282,67.232292 115.082748,84.499229 
	C115.097260,86.321968 116.248428,88.135651 116.890526,90.333664 
	C116.952187,91.473648 116.995583,92.233498 117.009949,93.461899 
	C116.987274,111.953636 116.993637,129.976822 117.000000,148.000000 
	C102.645775,148.000000 88.291542,148.000000 73.289215,147.560913 
	C72.615227,107.892296 72.585426,68.662766 72.582970,29.433233 
	C72.582893,28.291744 72.871902,27.150236 73.026123,26.008738 
z"/>
<path fill="#25E504" opacity="1.000000" stroke="none" 
	d="
M418.273407,15.005428 
	C417.495850,15.686720 416.808716,16.752277 415.920044,16.961487 
	C414.498077,17.296238 412.942322,17.068783 411.443146,17.068800 
	C277.010681,17.070210 142.578201,17.067316 8.145730,17.101395 
	C6.035041,17.101931 3.924467,17.556324 1.406919,17.899456 
	C1.000000,12.339037 1.000000,6.678073 1.000000,1.000000 
	C140.020889,1.000000 279.041779,1.000000 418.463531,1.408130 
	C418.669281,5.541569 418.474152,9.266878 418.202820,13.324693 
	C418.175537,14.106608 418.224457,14.556018 418.273407,15.005428 
M412.908203,3.397113 
	C283.163025,3.386543 153.417831,3.372213 23.672657,3.377087 
	C17.525156,3.377318 11.377661,3.547906 4.347938,3.682929 
	C4.124777,4.190311 3.901616,4.697694 3.466808,5.831241 
	C3.538642,6.480113 3.610477,7.128984 3.519248,8.561362 
	C3.531482,10.353771 3.543715,12.146179 3.721823,14.616160 
	C7.571318,14.744442 11.420796,14.984289 15.270308,14.984856 
	C146.971817,15.004236 278.673340,15.000948 410.374847,15.000920 
	C412.137024,15.000919 413.899170,15.000920 416.414886,15.000920 
	C415.939880,10.698361 415.550842,7.174399 414.486542,3.482230 
	C414.258331,3.523652 414.030090,3.565073 412.908203,3.397113 
z"/>
<path fill="#BFCACE" opacity="1.000000" stroke="none" 
	d="
M117.038986,92.993355 
	C116.995583,92.233498 116.952187,91.473648 116.960060,90.138062 
	C117.011330,89.562332 117.074066,89.151382 117.472809,89.132248 
	C118.935173,89.070717 119.998795,89.028320 121.434540,89.043755 
	C122.304123,89.076157 122.801598,89.050720 123.299072,89.025284 
	C123.582848,89.018585 123.778603,89.146545 124.196686,89.937332 
	C126.135590,90.647911 127.764114,90.989799 129.392685,90.990044 
	C267.595123,91.010361 405.797546,91.004242 544.000000,91.000000 
	C544.000000,92.066673 544.000000,93.133339 544.000000,94.600006 
	C404.830048,94.989105 265.660095,94.977425 126.490150,94.975708 
	C124.634560,94.975685 122.223083,94.248390 122.006897,97.791672 
	C121.353676,98.012955 121.183350,98.015930 121.002968,97.653671 
	C119.674942,95.856743 118.356956,94.425049 117.038986,92.993355 
z"/>
<path fill="#004B8C" opacity="1.000000" stroke="none" 
	d="
M418.279053,12.992186 
	C418.474152,9.266878 418.669281,5.541569 418.932190,1.408130 
	C460.666687,1.000000 502.333374,1.000000 544.000000,1.000000 
	C544.000000,4.732935 544.000000,8.387292 543.531372,12.520750 
	C501.468140,12.997296 459.873566,12.994740 418.279053,12.992186 
z"/>
<path fill="#FDFCFD" opacity="1.000000" stroke="none" 
	d="
M472.000000,141.001221 
	C472.000244,143.042526 472.000519,145.083832 472.000397,147.562561 
	C457.312439,148.000000 442.624878,148.000000 427.620697,147.701324 
	C428.029480,141.086380 423.998993,145.213257 421.729126,144.986450 
	C421.498962,145.004272 421.039032,144.963516 420.867065,144.857178 
	C420.695129,144.750854 420.294830,144.693588 420.126495,144.507217 
	C419.724304,144.341324 419.490417,144.361816 419.256561,144.382309 
	C419.463318,144.625839 419.670074,144.869370 419.887329,145.421265 
	C419.884705,146.140366 419.871613,146.551071 419.784607,147.236237 
	C419.807129,147.673782 419.903564,147.836899 420.000000,148.000000 
	C419.555542,148.000000 419.111115,148.000000 418.387268,147.837097 
	C418.107849,147.674179 418.143555,147.332825 418.289001,146.935043 
	C417.320496,145.740524 416.206512,144.943787 414.742554,144.120895 
	C410.438812,144.152176 413.485718,146.705917 413.000000,148.000000 
	C383.979095,148.000000 354.958221,148.000000 325.408752,147.599457 
	C323.791321,143.481216 322.012604,142.925171 318.972504,145.223053 
	C318.660706,145.458740 317.785187,144.948624 316.910583,144.504761 
	C315.114227,144.161316 313.578522,144.097687 311.735229,144.047470 
	C310.782196,144.421646 310.136749,144.782394 309.033417,145.399048 
	C310.375153,146.094604 311.220428,146.532791 312.042938,147.227829 
	C312.013428,147.656448 312.006714,147.828232 312.000000,148.000000 
	C295.645782,148.000000 279.291534,148.000000 262.468658,147.565033 
	C261.999603,145.101410 261.999176,143.072769 262.332214,141.032852 
	C263.110443,141.015396 263.555237,141.009216 264.468658,141.004135 
	C278.627289,141.005112 292.317291,141.004990 306.250061,141.005585 
	C306.492828,141.006287 306.978302,141.012039 307.448303,141.015625 
	C325.888916,141.014847 343.859619,141.037994 361.829895,140.961990 
	C363.557861,140.954681 365.283203,140.331039 367.339386,140.001511 
	C368.108490,140.019638 368.547943,140.029755 369.293365,140.324142 
	C381.677338,140.734161 393.755981,140.970886 405.832886,140.901108 
	C408.565704,140.885315 411.292389,139.804153 414.309174,139.244781 
	C414.978668,139.326126 415.360901,139.376099 415.910095,139.582489 
	C416.465881,139.605713 416.854675,139.472534 417.533020,139.353302 
	C418.933350,139.303162 420.044220,139.239075 421.316376,139.184814 
	C421.477692,139.194611 421.804138,139.198822 422.033264,139.286987 
	C422.262390,139.375168 422.746948,139.454681 422.917725,139.602875 
	C423.473724,139.613083 423.858948,139.475113 424.528076,139.352173 
	C425.540710,139.572250 426.269440,139.777328 427.292877,140.279205 
	C437.419403,140.699219 447.251129,140.846939 457.083313,140.891235 
	C457.746765,140.894226 458.413788,140.117310 459.435730,139.791107 
	C460.522461,139.876968 461.252533,139.874802 462.251312,140.185242 
	C465.679993,140.665619 468.839996,140.833420 472.000000,141.001221 
z"/>
<path fill="#FDFDFD" opacity="1.000000" stroke="none" 
	d="
M261.998779,141.044128 
	C261.999176,143.072769 261.999603,145.101410 262.000000,147.565033 
	C235.312439,148.000000 208.624878,148.000000 181.461365,147.734711 
	C180.968109,147.293381 180.950790,147.117310 180.963425,146.553116 
	C179.661346,145.789932 178.329300,145.414856 176.812531,144.807068 
	C176.079239,144.391663 175.530655,144.209000 174.740356,144.058533 
	C174.224365,144.284225 174.026443,144.537399 173.534805,144.823318 
	C171.948303,144.554901 170.731857,144.313431 169.191620,144.007690 
	C169.118042,145.540680 169.059021,146.770340 169.000000,148.000000 
	C168.555557,148.000000 168.111099,148.000000 167.431641,147.614990 
	C166.102676,146.171600 165.008743,145.113235 163.914810,144.054855 
	C163.609879,145.369904 163.304932,146.684952 163.000000,148.000000 
	C161.285645,148.000000 159.571289,148.000000 157.419693,147.691925 
	C156.055710,146.549530 155.128983,145.715225 153.985748,144.687271 
	C153.487900,145.069214 153.206558,145.644775 152.881348,146.518707 
	C152.891632,147.211380 152.945816,147.605682 153.000000,148.000000 
	C153.000000,148.000000 152.500000,148.000000 152.219055,147.656403 
	C150.870834,144.110855 148.743423,145.821289 146.625305,146.310669 
	C146.235092,146.930817 146.117554,147.465408 146.000000,148.000000 
	C140.645065,148.000000 135.290146,148.000000 129.467606,148.000000 
	C129.000168,145.958679 129.000336,143.917358 129.468903,141.440079 
	C143.301407,141.007706 156.665482,141.011276 170.272308,141.010071 
	C170.515060,141.005310 171.000610,140.998779 171.469238,141.000137 
	C201.958160,141.015701 231.978470,141.029907 261.998779,141.044128 
z"/>
<path fill="#ACB7BB" opacity="1.000000" stroke="none" 
	d="
M544.000000,90.750000 
	C405.797546,91.004242 267.595123,91.010361 129.392685,90.990044 
	C127.764114,90.989799 126.135590,90.647911 124.253365,90.113937 
	C126.162941,89.798500 128.326202,89.866013 130.489456,89.866264 
	C268.015137,89.882179 405.540833,89.892624 543.533264,89.951782 
	C544.000000,90.000000 544.000000,90.500000 544.000000,90.750000 
z"/>
<path fill="#FEFEFE" opacity="1.000000" stroke="none" 
	d="
M544.000000,46.545891 
	C532.536499,47.000050 521.071716,46.906017 509.610321,47.059105 
	C506.294006,47.103397 504.763458,46.302662 504.915100,42.643864 
	C505.054932,39.270870 505.270538,36.862934 509.670135,36.938591 
	C520.798035,37.129944 531.931458,37.000957 543.531372,37.000145 
	C544.000000,40.030594 544.000000,43.061188 544.000000,46.545891 
z"/>
<path fill="#292827" opacity="1.000000" stroke="none" 
	d="
M544.000000,85.750000 
	C531.117249,86.000000 518.234497,86.000000 505.146332,86.000000 
	C505.146332,82.381279 505.146332,78.999947 505.146332,75.151146 
	C517.949951,75.151146 530.511597,75.151146 543.536621,75.075577 
	C544.000000,76.388893 544.000000,77.777779 543.532593,79.629875 
	C537.846252,80.093079 532.627258,80.093079 527.408203,80.093079 
	C527.395447,80.763283 527.382690,81.433479 527.369873,82.103683 
	C530.857727,82.371681 534.374084,82.452026 537.822754,82.977127 
	C539.935486,83.298828 541.944458,84.302559 544.000000,85.000000 
	C544.000000,85.000000 544.000000,85.500000 544.000000,85.750000 
z"/>
<path fill="#FDFCFD" opacity="1.000000" stroke="none" 
	d="
M504.903046,69.971909 
	C501.428528,66.929138 502.598511,63.570839 504.916992,60.389992 
	C518.397400,60.732891 531.198730,60.866447 544.000000,61.000000 
	C544.000000,61.750000 544.000000,62.500000 543.623291,63.662514 
	C539.021179,64.574356 534.795776,65.073677 530.570435,65.573006 
	C530.578247,66.198730 530.585999,66.824455 530.593811,67.450180 
	C535.062561,67.633453 539.531250,67.816727 544.000000,68.000000 
	C544.000000,68.444443 544.000000,68.888893 543.531372,69.661163 
	C530.342834,69.983292 517.622925,69.977600 504.903046,69.971909 
z"/>
<path fill="#004782" opacity="1.000000" stroke="none" 
	d="
M418.202820,13.324692 
	C459.873566,12.994740 501.468140,12.997296 543.531372,12.999926 
	C544.000000,13.444445 544.000000,13.888889 544.000000,14.666667 
	C502.390472,15.000737 460.780914,15.001474 418.722412,15.003819 
	C418.224457,14.556018 418.175537,14.106608 418.202820,13.324692 
z"/>
<path fill="#004782" opacity="1.000000" stroke="none" 
	d="
M72.632080,26.107288 
	C72.871902,27.150236 72.582893,28.291744 72.582970,29.433233 
	C72.585426,68.662766 72.615227,107.892296 72.820557,147.560913 
	C72.555557,148.000000 72.111107,148.000000 71.333328,148.000000 
	C70.999008,109.227684 70.981178,70.455330 71.049721,31.683138 
	C71.052956,29.856676 71.824371,28.031572 72.632080,26.107288 
z"/>
<path fill="#C6D2D7" opacity="1.000000" stroke="none" 
	d="
M117.009949,93.461899 
	C118.356956,94.425049 119.674942,95.856743 121.001320,98.120193 
	C121.006477,115.301300 121.003235,131.650650 121.000000,148.000000 
	C119.933327,148.000000 118.866661,148.000000 117.399994,148.000000 
	C116.993637,129.976822 116.987274,111.953636 117.009949,93.461899 
z"/>
<path fill="#BEBFBE" opacity="1.000000" stroke="none" 
	d="
M544.000000,60.666672 
	C531.198730,60.866447 518.397400,60.732891 505.302399,60.299416 
	C506.744049,59.694492 508.477448,59.139172 510.215179,59.125259 
	C521.164368,59.037598 532.114502,59.070179 543.532166,59.031517 
	C544.000000,59.444447 544.000000,59.888889 544.000000,60.666672 
z"/>
<path fill="#ACB7BB" opacity="1.000000" stroke="none" 
	d="
M121.250000,148.000000 
	C121.003235,131.650650 121.006477,115.301300 121.011368,98.485428 
	C121.183350,98.015930 121.353676,98.012955 121.779778,98.007774 
	C122.048325,114.358696 122.061081,130.711823 122.036919,147.532471 
	C122.000000,148.000000 121.500000,148.000000 121.250000,148.000000 
z"/>
<path fill="#737271" opacity="1.000000" stroke="none" 
	d="
M544.000000,84.583336 
	C541.944458,84.302559 539.935486,83.298828 537.822754,82.977127 
	C534.374084,82.452026 530.857727,82.371681 527.369873,82.103683 
	C527.382690,81.433479 527.395447,80.763283 527.408203,80.093079 
	C532.627258,80.093079 537.846252,80.093079 543.532593,80.046539 
	C544.000000,81.388893 544.000000,82.777779 544.000000,84.583336 
z"/>
<path fill="#BEBFBE" opacity="1.000000" stroke="none" 
	d="
M544.000000,67.600006 
	C539.531250,67.816727 535.062561,67.633453 530.593811,67.450180 
	C530.585999,66.824455 530.578247,66.198730 530.570435,65.573006 
	C534.795776,65.073677 539.021179,64.574356 543.623291,64.037514 
	C544.000000,65.066673 544.000000,66.133339 544.000000,67.600006 
z"/>
<path fill="#A7A9A9" opacity="1.000000" stroke="none" 
	d="
M505.124634,70.353912 
	C517.622925,69.977600 530.342834,69.983292 543.531372,69.994492 
	C544.000000,70.000000 544.000000,70.500000 544.000000,70.750000 
	C531.115417,70.911964 518.230835,70.823936 505.124634,70.353912 
z"/>
<path fill="#B1B2B2" opacity="1.000000" stroke="none" 
	d="
M317.171234,144.784592 
	C317.785187,144.948624 318.660706,145.458740 318.972504,145.223053 
	C322.012604,142.925171 323.791321,143.481216 324.940063,147.599457 
	C322.629425,148.000000 320.258881,148.000000 317.445374,147.623642 
	C317.005310,146.494186 317.008118,145.741104 317.050873,144.937057 
	C317.090820,144.886108 317.171234,144.784592 317.171234,144.784592 
z"/>
<path fill="#A7A9A9" opacity="1.000000" stroke="none" 
	d="
M421.959320,144.968628 
	C423.998993,145.213257 428.029480,141.086380 427.152039,147.701324 
	C427.000000,148.000000 426.500000,148.000000 426.054260,147.853302 
	C425.072357,147.804398 424.536163,147.902191 424.000000,148.000000 
	C422.933319,148.000000 421.866669,148.000000 420.399994,148.000000 
	C419.903564,147.836899 419.807129,147.673782 420.003632,147.262146 
	C420.296539,147.013596 420.732758,147.055008 421.052246,146.943954 
	C421.567627,146.211487 421.763489,145.590057 421.959320,144.968628 
z"/>
<path fill="#BEBFBE" opacity="1.000000" stroke="none" 
	d="
M169.416656,148.000000 
	C169.059021,146.770340 169.118042,145.540680 169.191620,144.007690 
	C170.731857,144.313431 171.948303,144.554901 173.555634,145.218048 
	C173.964355,146.426483 173.982178,147.213242 174.000000,148.000000 
	C172.611115,148.000000 171.222214,148.000000 169.416656,148.000000 
z"/>
<path fill="#BEBFBE" opacity="1.000000" stroke="none" 
	d="
M163.399994,148.000000 
	C163.304932,146.684952 163.609879,145.369904 163.914810,144.054855 
	C165.008743,145.113235 166.102676,146.171600 167.098297,147.614990 
	C165.933334,148.000000 164.866653,148.000000 163.399994,148.000000 
z"/>
<path fill="#CBD3D7" opacity="1.000000" stroke="none" 
	d="
M418.143555,147.332825 
	C418.143555,147.332825 418.107849,147.674179 418.053925,147.837097 
	C416.611115,148.000000 415.222198,148.000000 413.416656,148.000000 
	C413.485718,146.705917 410.438812,144.152176 414.767090,144.443848 
	C416.142242,145.639587 417.142883,146.486206 418.143555,147.332825 
z"/>
<path fill="#B1B2B2" opacity="1.000000" stroke="none" 
	d="
M312.042786,144.034058 
	C313.578522,144.097687 315.114227,144.161316 316.910583,144.504761 
	C317.171234,144.784592 317.090820,144.886108 316.712067,144.997498 
	C315.888885,146.072601 315.444427,147.036301 315.000000,148.000000 
	C314.250000,148.000000 313.500000,148.000000 312.375000,148.000000 
	C312.006714,147.828232 312.013428,147.656448 312.046570,146.859558 
	C312.062897,145.500977 312.052826,144.767502 312.042786,144.034058 
z"/>
<path fill="#C9C9C9" opacity="1.000000" stroke="none" 
	d="
M180.933456,146.941223 
	C180.950790,147.117310 180.968109,147.293381 180.992706,147.734711 
	C179.611115,148.000000 178.222214,148.000000 176.271988,147.682709 
	C175.467789,146.252380 175.224930,145.139359 174.982071,144.026321 
	C175.530655,144.209000 176.079239,144.391663 176.824020,145.091873 
	C178.324631,146.053345 179.629044,146.497284 180.933456,146.941223 
z"/>
<path fill="#DEE6E9" opacity="1.000000" stroke="none" 
	d="
M154.202240,144.880905 
	C155.128983,145.715225 156.055710,146.549530 156.991226,147.691925 
	C155.933334,148.000000 154.866653,148.000000 153.399994,148.000000 
	C152.945816,147.605682 152.891632,147.211380 153.138885,146.337860 
	C153.694290,145.532730 153.948257,145.206818 154.202240,144.880905 
z"/>
<path fill="#CBD3D7" opacity="1.000000" stroke="none" 
	d="
M146.897995,146.225113 
	C148.743423,145.821289 150.870834,144.110855 151.969055,147.656403 
	C150.933334,148.000000 149.866653,148.000000 148.272919,147.770691 
	C147.463242,147.102615 147.180618,146.663864 146.897995,146.225113 
z"/>
<path fill="#CBD3D7" opacity="1.000000" stroke="none" 
	d="
M315.333313,148.000000 
	C315.444427,147.036301 315.888885,146.072601 316.672119,145.048462 
	C317.008118,145.741104 317.005310,146.494186 317.001221,147.623642 
	C316.555542,148.000000 316.111115,148.000000 315.333313,148.000000 
z"/>
<path fill="#A7A9A9" opacity="1.000000" stroke="none" 
	d="
M174.740356,144.058533 
	C175.224930,145.139359 175.467789,146.252380 175.855316,147.682709 
	C175.555557,148.000000 175.111099,148.000000 174.333328,148.000000 
	C173.982178,147.213242 173.964355,146.426483 173.925690,145.244995 
	C174.026443,144.537399 174.224365,144.284225 174.740356,144.058533 
z"/>
<path fill="#A7A9A9" opacity="1.000000" stroke="none" 
	d="
M146.625305,146.310669 
	C147.180618,146.663864 147.463242,147.102615 147.872925,147.770691 
	C147.555557,148.000000 147.111099,148.000000 146.333328,148.000000 
	C146.117554,147.465408 146.235092,146.930817 146.625305,146.310669 
z"/>
<path fill="#FDFCFD" opacity="1.000000" stroke="none" 
	d="
M424.333313,148.000000 
	C424.536163,147.902191 425.072357,147.804398 425.804260,147.853302 
	C425.555542,148.000000 425.111115,148.000000 424.333313,148.000000 
z"/>
<path fill="#FDFCFD" opacity="1.000000" stroke="none" 
	d="
M544.000000,27.750000 
	C543.686584,27.889322 543.427734,27.702881 543.361389,27.221178 
	C543.666199,27.001120 543.833069,27.000559 544.000000,27.000000 
	C544.000000,27.000000 544.000000,27.500000 544.000000,27.750000 
z"/>
<path fill="#D6E1EB" opacity="1.000000" stroke="none" 
	d="
M544.000000,26.750000 
	C543.833069,27.000559 543.666199,27.001120 543.248901,27.007046 
	C542.998535,27.012415 542.987732,26.612732 542.978577,26.413818 
	C543.135681,26.152746 543.301941,26.090586 543.734131,26.014214 
	C544.000000,26.000000 544.000000,26.500000 544.000000,26.750000 
z"/>
<path fill="#FEFEFF" opacity="1.000000" stroke="none" 
	d="
M388.036255,47.000610 
	C386.378845,47.000603 385.214264,47.002945 384.049683,47.000183 
	C378.194397,46.986305 376.336670,44.699692 378.227020,39.135574 
	C378.587738,38.073780 380.953125,37.108364 382.404480,37.092537 
	C396.377838,36.940155 410.353546,37.000580 424.328583,37.000504 
	C447.121185,37.000385 469.914520,37.091801 492.705780,36.916000 
	C496.778778,36.884586 498.127014,37.961468 498.155548,42.181114 
	C498.184143,46.418331 496.507202,47.073799 492.842621,47.062778 
	C458.071686,46.958149 423.300354,47.000530 388.036255,47.000610 
z"/>
<path fill="#FEFEFF" opacity="1.000000" stroke="none" 
	d="
M311.000000,37.000458 
	C329.467133,37.000481 347.434784,37.069450 365.401031,36.943134 
	C369.053497,36.917454 371.240204,37.183075 371.164032,41.879532 
	C371.094421,46.173805 369.639099,47.093246 365.648834,47.078659 
	C329.215942,46.945473 292.782166,46.945515 256.349274,47.078716 
	C252.358597,47.093304 250.903427,46.172356 250.833710,41.878761 
	C250.757431,37.180920 252.948029,36.917721 256.598938,36.943310 
	C274.565216,37.069225 292.532837,37.000481 311.000000,37.000458 
z"/>
<path fill="#FEFEFE" opacity="1.000000" stroke="none" 
	d="
M305.000000,78.999695 
	C288.196472,78.999420 271.891510,78.882523 255.590439,79.083359 
	C251.663101,79.131744 250.801086,77.655853 250.908936,74.109962 
	C251.006561,70.901085 251.149628,68.898384 255.362137,68.915138 
	C292.460419,69.062637 329.559753,69.063026 366.658051,68.915222 
	C370.897278,68.898331 370.975433,70.951057 371.087830,74.131149 
	C371.214142,77.706009 370.284973,79.116013 366.387939,79.081963 
	C346.093262,78.904579 325.796234,78.999535 305.000000,78.999695 
z"/>
<path fill="#FBFCFC" opacity="1.000000" stroke="none" 
	d="
M440.000000,68.998474 
	C457.968201,68.998558 475.437256,69.089882 492.903931,68.926407 
	C496.672760,68.891144 498.261902,69.736061 498.131104,73.882584 
	C498.014435,77.580040 497.320221,79.112930 493.146332,79.094536 
	C456.380676,78.932510 419.613647,78.932083 382.847992,79.094551 
	C378.665283,79.113029 377.991608,77.562843 377.869568,73.876076 
	C377.731934,69.717155 379.346497,68.896431 383.103241,68.927490 
	C401.901062,69.082916 420.700897,68.998543 440.000000,68.998474 
M391.882507,74.817535 
	C391.739807,74.746254 391.597961,74.623672 391.454041,74.621223 
	C391.353790,74.619507 391.155609,74.793030 391.164062,74.870491 
	C391.228394,75.458595 391.306335,76.049583 391.461731,76.617302 
	C391.479279,76.681465 392.003937,76.606812 392.293457,76.596535 
	C392.249512,76.176384 392.205566,75.756233 391.882507,74.817535 
z"/>
<path fill="#FEFEFE" opacity="1.000000" stroke="none" 
	d="
M144.923843,47.000610 
	C138.612076,46.999924 132.779846,46.792706 126.970520,47.068256 
	C122.820831,47.265091 122.971375,44.840534 122.961731,41.989574 
	C122.952003,39.112343 122.874542,36.833019 126.991379,36.925674 
	C137.300186,37.157692 147.621216,37.157921 157.929947,36.924404 
	C161.954300,36.833244 162.146332,38.936314 162.028229,41.909992 
	C161.908524,44.923889 162.510056,48.315792 157.765793,47.984310 
	C153.645462,47.696423 149.530502,47.331493 144.923843,47.000610 
z"/>
<path fill="#FEFEFF" opacity="1.000000" stroke="none" 
	d="
M166.052750,39.276031 
	C167.275894,38.219246 168.456238,37.100807 169.651871,37.084190 
	C179.790833,36.943291 189.936340,37.167301 200.071930,36.934685 
	C205.269241,36.815403 203.769974,40.339500 203.993774,43.044235 
	C204.234360,45.951706 204.074844,48.260479 199.986038,48.055733 
	C189.729187,47.542122 179.452942,47.423550 169.193497,46.950809 
	C163.671448,46.696362 166.908478,42.219669 166.052750,39.276031 
z"/>
<path fill="#FEFEFE" opacity="1.000000" stroke="none" 
	d="
M144.867218,68.999542 
	C150.028610,68.185738 151.908112,70.339630 150.873154,74.743599 
	C150.578064,75.999229 148.880051,77.803848 147.767746,77.846283 
	C140.488373,78.123985 133.193039,77.959572 125.903214,77.997421 
	C122.439079,78.015404 123.043304,75.519081 123.017235,73.452728 
	C122.990471,71.331688 122.567429,68.951111 125.996460,68.991051 
	C132.125839,69.062439 138.256714,69.003799 144.867218,68.999542 
z"/>
<path fill="#FEFEFE" opacity="1.000000" stroke="none" 
	d="
M165.050385,77.999580 
	C163.231293,77.999321 161.890198,77.877602 160.578568,78.022644 
	C157.226944,78.393272 155.825821,77.230812 155.897141,73.619720 
	C155.961960,70.338585 156.652969,68.783058 160.334167,68.929085 
	C166.796432,69.185448 173.280212,69.136444 179.746887,68.943497 
	C182.980865,68.847008 184.149124,69.919815 184.076447,73.207161 
	C184.003784,76.493790 183.038620,78.163506 179.480957,78.037239 
	C174.839966,77.872498 170.188675,77.998642 165.050385,77.999580 
z"/>
<path fill="#F8F9F9" opacity="1.000000" stroke="none" 
	d="
M121.062424,88.985931 
	C119.998795,89.028320 118.935173,89.070717 117.446991,88.648354 
	C117.012497,68.454926 117.002548,48.726257 116.992599,28.997591 
	C118.084091,28.664028 119.175583,28.330465 120.949631,28.041498 
	C122.088310,28.717070 122.544426,29.348045 122.788574,30.173195 
	C122.469604,31.094772 122.362602,31.822176 122.255600,32.549580 
	C119.339500,34.551731 118.754776,37.359104 118.934990,40.742973 
	C119.190308,45.537109 118.760071,50.373108 119.121353,55.153538 
	C119.261002,57.001423 120.763535,58.746307 122.065491,61.081062 
	C122.983795,62.438988 123.481766,63.253967 123.979736,64.068947 
	C122.625137,64.183144 121.270538,64.297333 119.255180,64.467232 
	C119.293770,70.072449 117.556046,75.820419 120.937317,82.090721 
	C120.998482,84.937157 121.030457,86.961548 121.062424,88.985931 
z"/>
<path fill="#DEE6E9" opacity="1.000000" stroke="none" 
	d="
M226.996536,55.999695 
	C194.188202,55.999668 161.878860,55.965862 129.569946,56.070721 
	C127.256767,56.078228 124.946877,57.100540 122.348061,57.719452 
	C122.348061,56.482803 122.348061,54.608795 122.348061,53.234661 
	C124.756828,53.835758 127.063866,54.906944 129.374039,54.913788 
	C165.180374,55.019844 200.987183,55.016972 236.793579,54.923191 
	C239.209137,54.916862 241.622253,53.983864 244.452240,53.395409 
	C244.452240,54.490662 244.452240,56.412964 244.452240,58.428692 
	C239.264587,53.814281 233.103256,56.892368 226.996536,55.999695 
z"/>
<path fill="#0A4461" opacity="1.000000" stroke="none" 
	d="
M121.434540,89.043762 
	C121.030457,86.961548 120.998482,84.937157 120.992188,82.479553 
	C121.692131,82.438225 122.366394,82.830132 123.079590,83.867981 
	C123.422493,84.605591 123.726463,84.697258 124.030441,84.788925 
	C163.580994,84.788925 203.131546,84.788925 242.682083,84.788925 
	C242.683365,85.248779 242.684647,85.708626 242.685913,86.168480 
	C240.924683,86.168480 239.163467,86.168488 237.402237,86.168472 
	C200.949905,86.168205 164.497513,86.142654 128.045532,86.255684 
	C126.510002,86.260437 124.978462,87.554146 123.372070,88.636337 
	C122.801598,89.050720 122.304123,89.076157 121.434540,89.043762 
z"/>
<path fill="#FDFCFD" opacity="1.000000" stroke="none" 
	d="
M123.000549,29.979019 
	C122.544426,29.348045 122.088310,28.717070 121.314896,28.040718 
	C120.976540,27.712847 120.955482,27.430353 120.901321,26.724190 
	C134.655106,26.240910 148.442001,26.181297 162.609314,26.201416 
	C161.367416,27.292141 159.745087,28.303139 157.662933,29.653704 
	C152.502106,30.007389 147.801071,30.021505 143.100037,30.035618 
	C142.667130,30.020206 142.234238,30.004793 141.224609,29.788757 
	C134.765427,29.718430 128.882996,29.848724 123.000549,29.979019 
z"/>
<path fill="#B1B2B2" opacity="1.000000" stroke="none" 
	d="
M122.788574,30.173195 
	C128.882996,29.848724 134.765427,29.718430 140.899750,29.783934 
	C139.796509,30.966702 138.485443,32.719818 137.078217,32.800770 
	C132.359314,33.072224 127.606102,32.746857 122.560806,32.599770 
	C122.362602,31.822176 122.469604,31.094772 122.788574,30.173195 
z"/>
<path fill="#B1B2B2" opacity="1.000000" stroke="none" 
	d="
M143.101807,30.414766 
	C147.801071,30.021505 152.502106,30.007389 157.598801,30.006123 
	C157.850052,30.794142 157.979462,31.914068 157.513397,32.284218 
	C155.596237,33.806858 145.087723,32.603157 143.101807,30.414766 
z"/>
<path fill="#B1B2B2" opacity="1.000000" stroke="none" 
	d="
M256.873627,28.577816 
	C258.450562,29.278399 260.027527,29.978979 262.369629,31.019499 
	C259.881531,34.076538 256.643921,32.741909 253.999207,32.697849 
	C253.006622,32.681309 252.041245,31.032141 251.440948,29.626240 
	C253.503494,28.942719 255.188568,28.760265 256.873627,28.577816 
z"/>
<path fill="#B1B2B2" opacity="1.000000" stroke="none" 
	d="
M516.462769,32.891594 
	C512.701965,32.705898 509.374390,32.516590 506.046814,32.327286 
	C506.101501,31.716108 506.156189,31.104929 506.210846,30.493752 
	C510.584503,30.493752 514.958191,30.493752 519.331848,30.493752 
	C519.466431,30.828627 519.600952,31.163502 519.735535,31.498379 
	C518.789001,31.961582 517.842468,32.424786 516.462769,32.891594 
z"/>
<path fill="#A7A9A9" opacity="1.000000" stroke="none" 
	d="
M124.433975,64.099403 
	C123.481766,63.253967 122.983795,62.438988 122.291733,61.390751 
	C127.092171,61.157497 132.086700,61.157497 137.572815,61.157497 
	C133.758224,65.001305 129.131393,63.807564 124.433975,64.099403 
z"/>
<path fill="#FDFCFD" opacity="1.000000" stroke="none" 
	d="
M185.008362,26.666367 
	C186.721481,26.227926 188.434677,26.174868 190.569901,26.201443 
	C189.875702,29.993608 187.686615,32.632023 183.451157,34.612556 
	C184.122025,31.355408 184.565247,29.203577 185.008362,26.666367 
z"/>
<path fill="#BEBFBE" opacity="1.000000" stroke="none" 
	d="
M176.887238,29.257109 
	C178.534515,29.705597 180.181778,30.154083 181.947754,30.634886 
	C179.601685,33.607754 174.380585,33.854244 169.907257,30.974110 
	C171.794418,30.417316 173.194168,30.004328 175.162476,29.359406 
	C176.116425,29.170683 176.501831,29.213896 176.887238,29.257109 
z"/>
<path fill="#A7A9A9" opacity="1.000000" stroke="none" 
	d="
M189.319565,61.161690 
	C190.835159,61.370335 191.948410,61.623089 193.061661,61.875847 
	C192.998169,62.312943 192.934677,62.750038 192.871185,63.187134 
	C188.973648,63.187134 185.076126,63.187134 181.178589,63.187134 
	C181.169174,62.526688 181.159760,61.866241 181.150345,61.205795 
	C183.739304,61.205795 186.328262,61.205795 189.319565,61.161690 
z"/>
<path fill="#A7A9A9" opacity="1.000000" stroke="none" 
	d="
M528.742310,30.044874 
	C529.744995,30.526949 530.319275,30.993887 530.893555,31.460823 
	C528.322571,31.926371 525.760437,32.622078 523.175415,32.720833 
	C522.372986,32.751492 521.508606,31.162628 519.769836,29.400091 
	C523.783630,29.695883 526.048767,29.862810 528.742310,30.044874 
z"/>
<path fill="#FDFCFD" opacity="1.000000" stroke="none" 
	d="
M256.900269,28.004995 
	C255.188568,28.760265 253.503494,28.942719 251.460007,29.229954 
	C251.071701,28.569971 251.041840,27.805204 251.010254,26.660866 
	C252.741623,26.231226 254.474701,26.181158 256.565125,26.208202 
	C256.923950,26.667604 256.925415,27.049891 256.900269,28.004995 
z"/>
<path fill="#FDFCFD" opacity="1.000000" stroke="none" 
	d="
M177.009201,28.956177 
	C176.501831,29.213896 176.116425,29.170683 175.440918,29.125061 
	C174.774323,28.393087 174.397827,27.663523 174.014923,26.607533 
	C175.073715,26.228085 176.138901,26.175062 177.597610,26.201630 
	C177.704483,27.072561 177.417816,27.863901 177.009201,28.956177 
z"/>
<path fill="#ECEBEB" opacity="1.000000" stroke="none" 
	d="
M159.885132,63.624893 
	C159.270096,63.157661 158.732071,62.364174 158.194031,61.570686 
	C158.672241,61.307564 159.150452,61.044441 159.628662,60.781322 
	C159.739822,61.620426 159.850998,62.459534 159.885132,63.624893 
z"/>
<path fill="#FDFCFD" opacity="1.000000" stroke="none" 
	d="
M379.018066,26.597757 
	C379.451233,26.229399 379.893951,26.177507 380.664185,26.203453 
	C380.765472,27.032001 380.539307,27.782711 380.313141,28.533422 
	C379.884644,27.993690 379.456177,27.453957 379.018066,26.597757 
z"/>
<path fill="#C6D2D7" opacity="1.000000" stroke="none" 
	d="
M123.926804,84.613945 
	C123.726463,84.697258 123.422493,84.605591 123.139603,84.242538 
	C123.407310,84.090569 123.628136,84.246506 123.926804,84.613945 
z"/>
<path fill="#749CC0" opacity="1.000000" stroke="none" 
	d="
M26.525311,42.407639 
	C35.161316,41.247284 41.247135,41.668102 44.343449,43.962982 
	C42.979301,44.334892 41.987061,44.833176 40.992222,44.838409 
	C35.851784,44.865437 30.709679,44.801949 25.571280,44.658283 
	C25.031467,44.643192 24.512133,43.895691 23.983295,43.487991 
	C24.703829,43.123783 25.424362,42.759575 26.525311,42.407639 
z"/>
<path fill="#6391B8" opacity="1.000000" stroke="none" 
	d="
M22.250500,106.119476 
	C27.364674,106.141655 32.010033,106.141655 37.784023,106.141655 
	C33.673820,109.609093 20.364433,109.477989 16.386847,106.097298 
	C18.800219,106.097298 20.290951,106.097298 22.250500,106.119476 
z"/>
<path fill="#6391B8" opacity="1.000000" stroke="none" 
	d="
M44.241562,83.932869 
	C37.984608,83.480583 31.849024,85.189362 26.234970,83.053612 
	C26.299984,82.504578 26.364998,81.955544 26.430012,81.406509 
	C32.399311,81.406509 38.368916,81.391449 44.335842,81.510399 
	C44.460041,81.512878 44.553314,83.066559 44.241562,83.932869 
z"/>
<path fill="#6391B8" opacity="1.000000" stroke="none" 
	d="
M9.293411,130.222717 
	C14.708023,130.548752 19.751719,130.729858 24.789984,131.008987 
	C25.601688,131.053940 26.389200,131.535568 27.044844,132.668518 
	C20.594088,132.668518 14.143333,132.668518 6.346092,132.668518 
	C7.719105,131.304230 8.319898,130.707260 9.293411,130.222717 
z"/>
<path fill="#749CC0" opacity="1.000000" stroke="none" 
	d="
M54.441185,41.998726 
	C55.977242,41.998478 57.116657,41.998478 58.095024,41.998478 
	C55.392078,44.821106 49.074600,46.325020 46.224766,44.441811 
	C45.527245,43.980877 45.477009,42.540409 45.044689,41.309795 
	C48.600323,41.582073 51.322433,41.790527 54.441185,41.998726 
z"/>
<path fill="#5586B1" opacity="1.000000" stroke="none" 
	d="
M27.390869,119.188873 
	C28.393322,119.240723 29.040319,119.440231 29.687319,119.639740 
	C29.656183,119.931625 29.625050,120.223511 29.593914,120.515396 
	C23.356970,120.515396 17.120028,120.515396 10.883083,120.515396 
	C10.796621,120.295021 10.710159,120.074654 10.623697,119.854279 
	C13.097705,119.371933 15.564542,118.547379 18.047567,118.495338 
	C21.036327,118.432716 24.038849,119.026779 27.390869,119.188873 
z"/>
<path fill="#749CC0" opacity="1.000000" stroke="none" 
	d="
M21.711643,43.808594 
	C15.536982,45.464947 13.056856,44.746876 12.375587,40.960804 
	C15.664916,41.814064 18.733652,42.610104 21.711643,43.808594 
z"/>
<path fill="#FDFDFD" opacity="1.000000" stroke="none" 
	d="
M129.014069,124.051674 
	C129.057602,111.478477 127.668976,113.018471 139.792343,113.015366 
	C247.124466,112.987846 354.456573,112.993340 461.788696,113.008331 
	C473.072937,113.009903 471.967712,111.785370 471.524658,123.571014 
	C444.422485,124.002739 417.791626,123.986267 391.160767,123.991142 
	C303.778534,124.007149 216.396301,124.030899 129.014069,124.051674 
M360.798950,117.489426 
	C357.771301,117.066116 354.743622,116.642807 351.715973,116.219498 
	C351.374512,116.479630 351.033020,116.739754 350.691559,116.999886 
	C351.552460,117.949455 352.377625,119.660843 353.281006,119.703186 
	C355.809204,119.821686 358.369751,119.250343 361.472961,119.189178 
	C362.175171,119.216049 362.877380,119.242920 363.579590,119.269783 
	C363.573395,118.965874 363.629730,118.416039 363.551331,118.396088 
	C362.768555,118.197029 361.963623,118.085281 360.798950,117.489426 
M442.867645,119.070709 
	C445.961334,119.790405 449.392120,121.856308 451.746796,117.016327 
	C452.818939,117.958710 453.891083,118.901093 455.097595,119.961578 
	C455.095490,115.394081 455.095490,115.394081 450.106995,115.065674 
	C447.435822,115.724594 444.764648,116.383514 441.416534,117.003403 
	C440.354065,116.697762 439.291595,116.392120 438.229126,116.086479 
	C438.097687,116.400635 437.966248,116.714790 437.834778,117.028946 
	C439.255493,117.672127 440.676208,118.315308 442.867645,119.070709 
M286.339417,119.800888 
	C286.859406,119.544769 287.379364,119.288651 288.493317,119.612083 
	C294.387848,120.091599 300.211151,120.090553 305.780060,118.373795 
	C305.714294,117.961891 305.648529,117.549980 305.582794,117.138077 
	C299.720490,116.758232 293.858215,116.378387 287.394012,116.049324 
	C286.921722,116.380463 286.449432,116.711609 285.343445,116.753586 
	C281.990540,116.529594 278.636505,116.150497 275.285400,116.175049 
	C274.265137,116.182526 273.252960,117.302269 272.237091,117.912605 
	C273.303223,118.581894 274.333221,119.747429 275.442169,119.828079 
	C278.866028,120.077072 282.320007,119.912224 286.339417,119.800888 
M389.902985,116.370697 
	C388.969635,116.694565 388.036285,117.018440 387.102936,117.342300 
	C387.723328,117.913475 388.343719,118.484642 389.793488,118.921066 
	C394.342926,119.264641 398.888367,119.766418 403.443542,119.880562 
	C405.512665,119.932411 408.679077,120.915459 408.610107,116.149551 
	C406.109955,116.428246 403.887939,116.675934 401.435760,116.950722 
	C401.435760,116.950722 401.204437,116.936859 400.432800,116.626083 
	C396.955200,116.755333 393.477570,116.884590 389.902985,116.370697 
M347.076508,116.034966 
	C342.000397,116.022690 336.922394,115.936630 331.849854,116.065575 
	C330.927673,116.089020 330.027832,116.991547 329.117676,117.488258 
	C329.972839,118.300781 330.833160,119.818977 331.682312,119.812729 
	C337.764771,119.767944 343.844910,119.413040 349.967377,118.408562 
	C349.279633,117.616859 348.591858,116.825157 347.076508,116.034966 
M308.727173,118.381035 
	C313.829010,121.771248 319.134918,119.105568 324.517212,119.021729 
	C323.204163,117.523453 321.775970,116.463890 320.181549,116.059090 
	C316.498810,115.124084 312.469879,117.748764 308.897217,115.073547 
	C308.805237,115.957199 308.713226,116.840858 308.727173,118.381035 
M373.109528,115.249954 
	C371.362640,116.704849 371.167969,117.977783 372.933258,118.627647 
	C375.171661,119.451653 377.654694,119.744194 380.057465,119.918472 
	C380.931061,119.981834 381.877197,119.045975 382.790222,118.566002 
	C381.969818,117.727684 381.265656,116.372154 380.305359,116.156303 
	C378.154572,115.672874 375.876312,115.756531 373.109528,115.249954 
M463.310822,120.009026 
	C465.243469,119.435905 467.176147,118.862778 469.108795,118.289650 
	C468.918152,117.485489 468.727509,116.681328 468.536865,115.877167 
	C464.725708,116.325409 460.914581,116.773643 457.103424,117.221878 
	C457.102173,117.942284 457.100952,118.662689 457.099701,119.383095 
	C458.881195,119.590988 460.662659,119.798882 463.310822,120.009026 
M421.602020,116.877739 
	C418.941162,116.877739 416.280273,116.877739 413.619415,116.877739 
	C413.604614,117.467819 413.589783,118.057892 413.574982,118.647972 
	C417.877014,119.033165 422.179047,119.418358 426.481079,119.803543 
	C426.567444,119.219681 426.653778,118.635818 426.740112,118.051956 
	C425.299438,117.679848 423.858734,117.307739 421.602020,116.877739 
M134.984711,118.446632 
	C137.763840,120.855507 140.243179,120.419189 142.630341,119.108147 
	C142.570923,118.421829 142.511490,117.735519 142.452057,117.049202 
	C139.841522,117.343864 137.230972,117.638527 134.984711,118.446632 
M267.737061,120.534218 
	C268.434143,119.035683 269.131226,117.537148 269.828308,116.038620 
	C269.176849,115.801582 268.525391,115.564545 267.873932,115.327507 
	C266.623901,116.637573 263.802460,117.469131 267.737061,120.534218 
M432.276184,119.049118 
	C433.533722,119.314590 434.791260,119.580055 435.696503,119.771164 
	C435.336914,117.752594 435.111603,116.487968 434.641022,113.846375 
	C433.438416,115.973320 432.763489,117.167061 432.276184,119.049118 
M131.410400,116.195168 
	C131.792389,116.199547 132.174362,116.203934 132.556351,116.208313 
	C132.558029,116.049797 132.570465,115.753517 132.559845,115.752686 
	C132.179718,115.723061 131.797409,115.721031 131.410400,116.195168 
M410.274567,115.824821 
	C410.383240,115.974426 410.491882,116.124023 410.600525,116.273636 
	C410.579163,116.066856 410.557800,115.860069 410.274567,115.824821 
z"/>
<path fill="#FFFFFF" opacity="1.000000" stroke="none" 
	d="
M471.981964,125.934845 
	C471.987854,128.003372 471.993774,130.071915 471.625671,132.577438 
	C470.505615,133.014938 469.759583,133.015427 468.551270,133.009369 
	C464.388062,133.007324 460.687073,133.011856 456.518311,133.014816 
	C446.371338,133.013885 436.692169,133.014511 426.546875,133.008728 
	C421.716370,133.006516 417.351959,133.010727 412.615601,133.013855 
	C411.499725,133.013474 410.755768,133.014160 409.674561,133.009201 
	C408.887573,133.007370 408.437805,133.011200 407.520142,133.013733 
	C379.372162,133.013290 351.692108,133.014130 323.593292,133.008713 
	C321.778931,133.006836 320.383270,133.011215 318.658264,133.015167 
	C317.889771,133.014786 317.450653,133.014832 316.565918,133.008652 
	C313.742493,133.006851 311.364685,133.011276 308.657837,133.015381 
	C307.890106,133.015457 307.451447,133.015823 306.675232,133.010223 
	C305.887604,133.008163 305.437531,133.012070 304.519562,133.014496 
	C290.697876,133.020462 277.344055,133.027893 263.991974,133.026611 
	C263.993713,133.017899 263.998718,133.001068 263.999023,132.564468 
	C264.000183,130.090134 264.001038,128.052399 264.470367,126.006142 
	C333.953217,125.976700 402.967590,125.955772 471.981964,125.934845 
z"/>
<path fill="#ECEBEB" opacity="1.000000" stroke="none" 
	d="
M170.029572,141.014847 
	C156.665482,141.011276 143.301407,141.007706 129.468658,141.002670 
	C129.001862,138.638153 129.003723,136.275085 129.404053,133.464478 
	C130.868790,133.015182 131.935074,133.013443 133.235153,133.272034 
	C135.126114,134.461243 136.783279,135.390121 138.729416,136.480988 
	C139.144348,135.358551 139.578506,134.184097 140.439316,133.010666 
	C142.573074,133.013611 144.280182,133.015533 145.995331,133.347137 
	C147.195648,135.085297 148.387939,136.493744 149.197998,137.450653 
	C151.896408,135.686127 153.942535,134.348129 156.426086,133.010986 
	C158.904007,133.011612 160.944534,133.011398 162.980408,133.382492 
	C161.883209,134.967926 160.790665,136.182068 159.354416,137.778152 
	C162.893631,137.601288 165.005829,136.549988 165.410278,133.012085 
	C167.478958,132.696091 169.152267,132.379257 171.124557,132.022797 
	C171.623047,131.973358 171.822571,131.963562 172.258972,131.968018 
	C172.495834,131.982254 172.966904,131.924713 173.350067,131.927917 
	C174.499207,131.953796 175.265167,131.976501 176.227417,132.261414 
	C177.558945,132.361938 178.694214,132.200272 180.141052,132.024597 
	C180.660522,132.007767 180.868439,132.004929 181.360931,132.300842 
	C183.287781,132.737061 184.929916,132.992874 186.572281,132.994293 
	C211.715134,133.016098 236.857986,133.004715 262.333801,133.001633 
	C263.110748,133.001816 263.554749,133.001450 263.998718,133.001068 
	C263.998718,133.001068 263.993713,133.017899 263.995422,133.466812 
	C263.998077,136.278168 263.999023,138.640610 264.000000,141.003052 
	C263.555237,141.009216 263.110443,141.015396 262.332214,141.032852 
	C231.978470,141.029907 201.958160,141.015701 171.451996,140.754944 
	C170.809082,140.251465 170.652023,139.994537 170.494980,139.737610 
	C170.339844,140.163361 170.184708,140.589096 170.029572,141.014847 
z"/>
<path fill="#FFFFFF" opacity="1.000000" stroke="none" 
	d="
M170.825592,132.062439 
	C169.152267,132.379257 167.478958,132.696091 165.071869,133.007263 
	C163.887100,133.004791 163.436066,133.007980 162.985046,133.011185 
	C160.944534,133.011398 158.904007,133.011612 156.627441,132.744034 
	C158.021088,131.892487 159.650803,131.308731 161.772842,130.548630 
	C160.499863,129.537827 159.219986,127.671356 157.760651,127.518539 
	C152.940811,127.013840 148.056335,127.117310 143.195984,127.022865 
	C142.737411,127.013954 142.273972,127.254837 141.862091,127.366386 
	C141.862091,128.888763 141.862091,130.315384 141.862091,131.372314 
	C143.420486,131.993805 144.703888,132.505615 145.987289,133.017441 
	C144.280182,133.015533 142.573074,133.013611 140.068954,133.006027 
	C138.008331,132.905869 136.744705,132.811386 135.481094,132.716904 
	C135.799194,132.343262 136.117310,131.969620 136.435425,131.595963 
	C135.036560,130.252899 133.637711,128.909821 132.238861,127.566757 
	C131.851547,127.781456 131.464249,127.996162 131.076935,128.210861 
	C131.718414,129.811142 132.359894,131.411423 133.001358,133.011703 
	C131.935074,133.013443 130.868790,133.015182 129.402771,133.022034 
	C129.004913,130.955383 129.006790,128.883636 129.480927,126.389832 
	C173.968155,125.983498 217.983109,125.999207 261.999329,126.449188 
	C262.000671,128.922668 262.000763,130.961868 262.000854,133.001068 
	C236.857986,133.004715 211.715134,133.016098 186.572281,132.994293 
	C184.929916,132.992874 183.287781,132.737061 181.688721,132.247101 
	C182.153656,130.965363 182.575409,130.036133 182.908661,128.854156 
	C182.536667,128.396744 182.253189,128.192093 181.561005,127.987076 
	C176.989731,127.986725 172.827133,127.986725 168.277939,127.986725 
	C168.108261,128.869354 167.848099,130.222641 167.541122,131.819473 
	C168.908463,131.920624 169.867020,131.991531 170.825592,132.062439 
M164.489227,130.857330 
	C164.787720,130.431793 165.086197,130.006241 165.384674,129.580704 
	C164.942459,129.466370 164.500244,129.352036 164.058029,129.237701 
	C164.004715,129.736176 163.951385,130.234650 164.489227,130.857330 
z"/>
<path fill="#C5E3FF" opacity="1.000000" stroke="none" 
	d="
M261.998077,126.014915 
	C217.983109,125.999207 173.968155,125.983498 129.487198,125.946396 
	C129.019272,125.508598 129.017349,125.092209 129.014740,124.363739 
	C216.396301,124.030899 303.778534,124.007149 391.160767,123.991142 
	C417.791626,123.986267 444.422485,124.002739 471.520386,124.028183 
	C471.985992,124.466797 471.984619,124.886673 471.982605,125.620697 
	C402.967590,125.955772 333.953217,125.976700 264.136414,125.997818 
	C262.888672,126.003654 262.443359,126.009285 261.998077,126.014915 
z"/>
<path fill="#EDECEC" opacity="1.000000" stroke="none" 
	d="
M469.013519,133.015930 
	C469.759583,133.015427 470.505615,133.014938 471.624634,133.018494 
	C471.997681,135.386246 471.997833,137.749969 471.998962,140.557449 
	C468.839996,140.833420 465.679993,140.665619 462.346924,139.933868 
	C462.285797,139.229294 462.397736,139.088669 462.771423,138.946609 
	C463.385498,138.953354 463.737854,138.961533 464.477814,138.942444 
	C466.224335,138.332062 467.583252,137.748978 468.957825,136.750824 
	C468.986816,135.229156 469.000183,134.122543 469.013519,133.015930 
z"/>
<path fill="#A7A9A9" opacity="1.000000" stroke="none" 
	d="
M238.481873,103.245270 
	C239.201889,104.200500 240.129181,105.447655 239.868439,105.790016 
	C238.295654,107.855164 232.732941,107.933464 229.674118,105.636177 
	C232.780258,104.712662 235.460190,103.915871 238.481873,103.245270 
z"/>
<path fill="#FDFDFD" opacity="1.000000" stroke="none" 
	d="
M177.809296,105.793640 
	C177.850006,104.155357 178.127518,102.718880 178.405029,101.282410 
	C178.774323,101.349129 179.143616,101.415855 179.512924,101.482574 
	C179.625854,103.830391 179.738785,106.178207 179.851730,108.526024 
	C179.471252,108.546967 179.090775,108.567909 178.710297,108.588852 
	C178.488907,107.724388 178.267502,106.859924 177.809296,105.793640 
z"/>
<path fill="#737271" opacity="1.000000" stroke="none" 
	d="
M131.027039,105.745712 
	C130.510117,105.383125 130.059860,104.663048 129.609604,103.942963 
	C129.928467,103.783363 130.247314,103.623756 130.566177,103.464157 
	C130.742020,104.105515 130.917877,104.746864 131.027039,105.745712 
z"/>
<path fill="#A7A9A9" opacity="1.000000" stroke="none" 
	d="
M195.719727,107.353058 
	C195.204956,107.274162 194.869736,106.984764 194.534515,106.695358 
	C194.741562,106.524780 194.948608,106.354202 195.155655,106.183624 
	C195.403534,106.503273 195.651398,106.822914 195.719727,107.353058 
z"/>
<path fill="#FDFDFD" opacity="1.000000" stroke="none" 
	d="
M174.471130,103.459419 
	C174.518860,103.431305 174.423386,103.487534 174.471130,103.459419 
z"/>
<path fill="#FDFCFD" opacity="1.000000" stroke="none" 
	d="
M116.600082,29.095791 
	C117.002548,48.726257 117.012497,68.454926 117.048256,88.667488 
	C117.074066,89.151382 117.011330,89.562332 116.941795,89.757935 
	C116.248428,88.135651 115.097260,86.321968 115.082748,84.499229 
	C114.945282,67.232292 114.977791,49.963715 115.053169,32.696011 
	C115.058266,31.527014 115.805481,30.361258 116.600082,29.095791 
z"/>
<path fill="#065187" opacity="1.000000" stroke="none" 
	d="
M5.230163,3.639158 
	C11.377661,3.547906 17.525156,3.377318 23.672657,3.377087 
	C153.417831,3.372213 283.163025,3.386543 413.482910,3.731038 
	C414.425659,3.926790 414.793701,3.788618 415.161774,3.650441 
	C415.550842,7.174399 415.939880,10.698361 416.414886,15.000920 
	C413.899170,15.000920 412.137024,15.000919 410.374847,15.000920 
	C278.673340,15.000948 146.971817,15.004236 15.270308,14.984856 
	C11.420796,14.984289 7.571318,14.744442 3.953418,14.151627 
	C4.017445,11.717346 3.849878,9.747602 3.682311,7.777856 
	C3.610477,7.128984 3.538642,6.480113 3.892526,5.321568 
	C4.622217,4.420983 4.926190,4.030070 5.230163,3.639158 
M373.802460,7.207618 
	C371.268341,7.539994 368.734253,7.872369 366.039062,8.225870 
	C369.742462,10.989935 383.757080,10.630131 385.743744,7.865958 
	C385.493286,7.663288 385.246307,7.288990 384.991882,7.283861 
	C381.537445,7.214231 378.081970,7.195797 373.802460,7.207618 
M22.008928,7.175257 
	C20.528524,7.327057 19.048119,7.478857 17.567715,7.630657 
	C17.638418,8.084536 17.709124,8.538414 17.779829,8.992292 
	C23.654137,11.089244 33.275303,10.303128 34.496738,7.421754 
	C32.516853,7.421754 30.607712,7.456980 28.700459,7.412040 
	C26.716070,7.365282 24.733507,7.241098 22.008928,7.175257 
M171.483383,10.000162 
	C174.156494,10.000162 176.829620,10.000162 179.502731,10.000162 
	C179.479568,9.344165 179.456390,8.688169 179.433228,8.032171 
	C173.232910,8.032171 167.032578,8.032171 160.832260,8.032171 
	C160.818466,8.537942 160.804688,9.043713 160.790894,9.549483 
	C164.039444,9.706356 167.288010,9.863230 171.483383,10.000162 
M145.989380,10.013767 
	C148.280212,9.860592 150.571060,9.707417 152.861893,9.554241 
	C152.835922,8.986893 152.809937,8.419544 152.783966,7.852196 
	C147.695755,7.852196 142.607529,7.852196 137.519318,7.852196 
	C137.470398,8.262007 137.421494,8.671819 137.372589,9.081630 
	C139.970901,9.398649 142.569199,9.715669 145.989380,10.013767 
M66.193108,7.522767 
	C65.235023,7.522767 64.276939,7.522767 63.318851,7.522767 
	C63.325184,8.073293 63.331520,8.623817 63.337852,9.174343 
	C67.839645,9.174343 72.341431,9.174343 76.843224,9.174343 
	C76.843224,8.714670 76.843224,8.254997 76.843224,7.795325 
	C73.535271,7.795325 70.227318,7.795325 66.193108,7.522767 
M214.323807,7.997127 
	C211.574203,7.584146 208.833221,7.062093 206.068253,6.843135 
	C205.459030,6.794890 204.764694,7.821625 204.109543,8.353347 
	C204.798386,8.888189 205.462280,9.841151 206.180496,9.884010 
	C208.984146,10.051311 211.806274,9.961312 214.616425,9.844307 
	C214.794678,9.836884 214.929520,8.786487 214.323807,7.997127 
M364.865662,8.535274 
	C362.057861,7.934863 359.250061,7.334453 356.442291,6.734043 
	C356.335114,7.418574 356.227966,8.103106 356.120789,8.787636 
	C358.649689,10.969959 361.685089,10.039792 364.865662,8.535274 
z"/>
<path fill="#004194" opacity="1.000000" stroke="none" 
	d="
M3.600780,8.169609 
	C3.849878,9.747602 4.017445,11.717346 3.870481,13.812840 
	C3.543715,12.146179 3.531482,10.353771 3.600780,8.169609 
z"/>
<path fill="#004194" opacity="1.000000" stroke="none" 
	d="
M414.824158,3.566338 
	C414.793701,3.788618 414.425659,3.926790 413.929688,3.835729 
	C414.030090,3.565073 414.258331,3.523652 414.824158,3.566338 
z"/>
<path fill="#004194" opacity="1.000000" stroke="none" 
	d="
M4.789050,3.661043 
	C4.926190,4.030070 4.622217,4.420983 3.998350,5.008486 
	C3.901616,4.697694 4.124777,4.190311 4.789050,3.661043 
z"/>
<path fill="#EDECEC" opacity="1.000000" stroke="none" 
	d="
M264.468658,141.004135 
	C263.999023,138.640610 263.998077,136.278168 263.993683,133.475525 
	C277.344055,133.027893 290.697876,133.020462 304.565063,133.305664 
	C305.400665,133.908615 305.722931,134.218918 306.045197,134.529221 
	C306.367706,134.024872 306.690247,133.520523 307.012756,133.016174 
	C307.451447,133.015823 307.890106,133.015457 308.671570,133.380127 
	C310.974945,135.993576 314.389771,135.681732 317.011505,133.014877 
	C317.450653,133.014832 317.889771,133.014786 318.703674,133.315399 
	C320.867432,134.601517 322.722198,136.126633 324.012024,133.014969 
	C351.692108,133.014130 379.372162,133.013290 407.565765,133.306168 
	C408.723480,133.404877 409.367645,133.209869 410.011841,133.014862 
	C410.755768,133.014160 411.499725,133.013474 412.635529,133.282166 
	C413.310028,134.177231 413.592651,134.802917 413.632446,135.689514 
	C413.600342,137.038071 413.811096,138.125717 414.021881,139.213379 
	C411.292389,139.804153 408.565704,140.885315 405.832886,140.901108 
	C393.755981,140.970886 381.677338,140.734161 369.310852,140.059692 
	C371.296631,138.828415 373.570892,138.145859 375.845154,137.463318 
	C375.934509,137.068634 376.023865,136.673935 376.113220,136.279251 
	C373.578827,136.007187 371.044434,135.735138 368.382141,135.449341 
	C367.864868,137.162155 367.437317,138.577820 367.009766,139.993500 
	C365.283203,140.331039 363.557861,140.954681 361.829895,140.961990 
	C343.859619,141.037994 325.888916,141.014847 307.433350,140.770111 
	C306.796478,140.260803 306.644623,140.000610 306.492798,139.740417 
	C306.330933,140.161896 306.169098,140.583389 306.007263,141.004883 
	C292.317291,141.004990 278.627289,141.005112 264.468658,141.004135 
z"/>
<path fill="#EDECEC" opacity="1.000000" stroke="none" 
	d="
M427.012970,133.015152 
	C436.692169,133.014511 446.371338,133.013885 456.523346,133.339508 
	C457.157349,134.661087 457.318573,135.656403 457.676392,136.945450 
	C458.275024,138.060486 458.677094,138.881790 459.079132,139.703110 
	C458.413788,140.117310 457.746765,140.894226 457.083313,140.891235 
	C447.251129,140.846939 437.419403,140.699219 427.429016,139.945709 
	C427.154266,138.036697 427.038086,136.757965 426.945435,135.177063 
	C426.983612,134.254974 426.998291,133.635071 427.012970,133.015152 
z"/>
<path fill="#CBD3D7" opacity="1.000000" stroke="none" 
	d="
M367.339386,140.001511 
	C367.437317,138.577820 367.864868,137.162155 368.382141,135.449341 
	C371.044434,135.735138 373.578827,136.007187 376.113220,136.279251 
	C376.023865,136.673935 375.934509,137.068634 375.845154,137.463318 
	C373.570892,138.145859 371.296631,138.828415 369.004883,139.775421 
	C368.547943,140.029755 368.108490,140.019638 367.339386,140.001511 
z"/>
<path fill="#A7A9A9" opacity="1.000000" stroke="none" 
	d="
M414.309174,139.244766 
	C413.811096,138.125717 413.600342,137.038071 413.968628,135.860748 
	C416.738739,136.140579 418.929810,136.510086 421.090820,137.261292 
	C421.092194,138.153671 421.123627,138.664322 421.155060,139.174988 
	C420.044220,139.239075 418.933350,139.303162 417.153839,139.315613 
	C416.237823,139.318008 415.990448,139.372055 415.743103,139.426086 
	C415.360901,139.376099 414.978668,139.326126 414.309174,139.244766 
z"/>
<path fill="#A7A9A9" opacity="1.000000" stroke="none" 
	d="
M426.921875,135.479248 
	C427.038086,136.757965 427.154266,138.036697 427.134338,139.648926 
	C426.269440,139.777328 425.540710,139.572250 424.148315,139.319916 
	C423.238739,139.333344 422.992828,139.394012 422.746948,139.454681 
	C422.746948,139.454681 422.262390,139.375168 422.090149,138.898376 
	C421.898895,137.903397 421.879852,137.385239 422.073242,136.631744 
	C423.831085,136.090698 425.376495,135.784973 426.921875,135.479248 
z"/>
<path fill="#A7A9A9" opacity="1.000000" stroke="none" 
	d="
M459.435730,139.791107 
	C458.677094,138.881790 458.275024,138.060486 458.008850,136.719955 
	C460.633850,135.473404 462.311554,136.035355 462.509705,138.948044 
	C462.397736,139.088669 462.285797,139.229294 462.078247,139.621277 
	C461.252533,139.874802 460.522461,139.876968 459.435730,139.791107 
z"/>
<path fill="#B1B2B2" opacity="1.000000" stroke="none" 
	d="
M418.289001,146.935059 
	C417.142883,146.486206 416.142242,145.639587 415.117065,144.470001 
	C416.206512,144.943787 417.320496,145.740524 418.289001,146.935059 
z"/>
<path fill="#DEE6E9" opacity="1.000000" stroke="none" 
	d="
M311.735229,144.047455 
	C312.052826,144.767502 312.062897,145.500977 312.069336,146.602707 
	C311.220428,146.532791 310.375153,146.094604 309.033417,145.399048 
	C310.136749,144.782394 310.782196,144.421646 311.735229,144.047455 
z"/>
<path fill="#CBD3D7" opacity="1.000000" stroke="none" 
	d="
M421.729126,144.986450 
	C421.763489,145.590057 421.567627,146.211487 421.143646,146.601227 
	C420.956696,145.900864 420.997864,145.432190 421.039001,144.963516 
	C421.039032,144.963516 421.498962,145.004272 421.729126,144.986450 
z"/>
<path fill="#B1B2B2" opacity="1.000000" stroke="none" 
	d="
M420.867065,144.857178 
	C420.997864,145.432190 420.956696,145.900864 420.824158,146.712280 
	C420.732758,147.055008 420.296539,147.013596 420.077515,146.987701 
	C419.871613,146.551071 419.884705,146.140366 419.992676,145.317322 
	C420.087585,144.905014 420.294830,144.693588 420.294830,144.693588 
	C420.294830,144.693588 420.695129,144.750854 420.867065,144.857178 
z"/>
<path fill="#F4F6F7" opacity="1.000000" stroke="none" 
	d="
M306.250061,141.005585 
	C306.169098,140.583389 306.330933,140.161896 306.492798,139.740417 
	C306.644623,140.000610 306.796478,140.260803 306.963318,140.766510 
	C306.978302,141.012039 306.492828,141.006287 306.250061,141.005585 
z"/>
<path fill="#C9C9C9" opacity="1.000000" stroke="none" 
	d="
M421.860809,136.867065 
	C421.879852,137.385239 421.898895,137.903397 421.861023,138.810196 
	C421.804138,139.198822 421.477692,139.194611 421.316376,139.184799 
	C421.123627,138.664322 421.092194,138.153671 421.275940,137.282227 
	C421.491150,136.921448 421.860809,136.867065 421.860809,136.867065 
z"/>
<path fill="#B1B2B2" opacity="1.000000" stroke="none" 
	d="
M419.982208,145.008957 
	C419.670074,144.869370 419.463318,144.625839 419.256561,144.382309 
	C419.490417,144.361816 419.724304,144.341324 420.126495,144.507217 
	C420.294830,144.693588 420.087585,144.905014 419.982208,145.008957 
z"/>
<path fill="#C9C9C9" opacity="1.000000" stroke="none" 
	d="
M415.910095,139.582489 
	C415.990448,139.372055 416.237823,139.318008 416.864319,139.301666 
	C416.854675,139.472534 416.465881,139.605713 415.910095,139.582489 
z"/>
<path fill="#C9C9C9" opacity="1.000000" stroke="none" 
	d="
M422.917725,139.602875 
	C422.992828,139.394012 423.238739,139.333344 423.864380,139.304901 
	C423.858948,139.475113 423.473724,139.613083 422.917725,139.602875 
z"/>
<path fill="#A7A9A9" opacity="1.000000" stroke="none" 
	d="
M180.963425,146.553116 
	C179.629044,146.497284 178.324631,146.053345 177.008728,145.324585 
	C178.329300,145.414856 179.661346,145.789932 180.963425,146.553116 
z"/>
<path fill="#F4F6F7" opacity="1.000000" stroke="none" 
	d="
M170.272308,141.010071 
	C170.184708,140.589096 170.339844,140.163361 170.494980,139.737610 
	C170.652023,139.994537 170.809082,140.251465 170.983368,140.753586 
	C171.000610,140.998779 170.515060,141.005310 170.272308,141.010071 
z"/>
<path fill="#CBD3D7" opacity="1.000000" stroke="none" 
	d="
M153.985733,144.687271 
	C153.948257,145.206818 153.694290,145.532730 153.182770,146.039490 
	C153.206558,145.644775 153.487900,145.069214 153.985733,144.687271 
z"/>
<path fill="#ACB7BB" opacity="1.000000" stroke="none" 
	d="
M392.022095,75.076813 
	C392.205566,75.756233 392.249512,76.176384 392.293457,76.596527 
	C392.003937,76.606812 391.479279,76.681465 391.461731,76.617302 
	C391.306335,76.049583 391.228394,75.458595 391.164062,74.870491 
	C391.155609,74.793030 391.353790,74.619507 391.454041,74.621223 
	C391.597961,74.623672 391.739807,74.746254 392.022095,75.076813 
z"/>
<path fill="#C9C9C9" opacity="1.000000" stroke="none" 
	d="
M349.925812,119.156639 
	C343.844910,119.413040 337.764771,119.767944 331.682312,119.812729 
	C330.833160,119.818977 329.972839,118.300781 329.117676,117.488251 
	C330.027832,116.991547 330.927673,116.089020 331.849854,116.065575 
	C336.922394,115.936630 342.000397,116.022690 347.395233,116.342468 
	C348.451233,117.485535 349.188538,118.321091 349.925812,119.156639 
M335.378784,117.426659 
	C335.378784,117.426659 335.565277,117.528816 335.565277,117.528816 
	C335.565277,117.528816 335.533447,117.306023 335.378784,117.426659 
z"/>
<path fill="#BEBFBE" opacity="1.000000" stroke="none" 
	d="
M401.665924,116.923630 
	C403.887939,116.675934 406.109955,116.428246 408.610107,116.149551 
	C408.679077,120.915459 405.512665,119.932411 403.443542,119.880562 
	C398.888367,119.766418 394.342926,119.264641 389.431702,118.691742 
	C389.379944,117.979568 389.689972,117.496712 389.999969,117.013855 
	C393.477570,116.884590 396.955200,116.755333 400.836884,116.939651 
	C401.240967,117.253220 401.575439,117.352112 401.575439,117.352112 
	C401.575439,117.352112 401.665924,116.923630 401.665924,116.923630 
z"/>
<path fill="#F8F9F9" opacity="1.000000" stroke="none" 
	d="
M308.674194,118.052780 
	C308.713226,116.840858 308.805237,115.957199 308.897217,115.073547 
	C312.469879,117.748764 316.498810,115.124084 320.181549,116.059090 
	C321.775970,116.463890 323.204163,117.523453 324.517212,119.021729 
	C319.134918,119.105568 313.829010,121.771248 308.674194,118.052780 
z"/>
<path fill="#B1B2B2" opacity="1.000000" stroke="none" 
	d="
M287.995941,115.998535 
	C293.858215,116.378387 299.720490,116.758232 305.582794,117.138077 
	C305.648529,117.549980 305.714294,117.961891 305.780060,118.373795 
	C300.211151,120.090553 294.387848,120.091599 288.237122,118.944199 
	C287.985931,117.517052 287.990936,116.757797 287.995941,115.998535 
z"/>
<path fill="#C9C9C9" opacity="1.000000" stroke="none" 
	d="
M285.762268,119.908104 
	C282.320007,119.912224 278.866028,120.077072 275.442169,119.828079 
	C274.333221,119.747429 273.303223,118.581894 272.237091,117.912605 
	C273.252960,117.302269 274.265137,116.182526 275.285400,116.175049 
	C278.636505,116.150497 281.990540,116.529594 285.656067,117.257690 
	C285.899872,118.477234 285.831085,119.192665 285.762268,119.908104 
z"/>
<path fill="#F8F9F9" opacity="1.000000" stroke="none" 
	d="
M373.379761,115.429611 
	C375.876312,115.756531 378.154572,115.672874 380.305359,116.156303 
	C381.265656,116.372154 381.969818,117.727684 382.790222,118.566010 
	C381.877197,119.045975 380.931061,119.981834 380.057465,119.918472 
	C377.654694,119.744194 375.171661,119.451653 372.933258,118.627647 
	C371.167969,117.977783 371.362640,116.704849 373.379761,115.429611 
z"/>
<path fill="#F8F9F9" opacity="1.000000" stroke="none" 
	d="
M462.877502,120.007904 
	C460.662659,119.798882 458.881195,119.590988 457.099701,119.383095 
	C457.100952,118.662689 457.102173,117.942284 457.103424,117.221878 
	C460.914581,116.773643 464.725708,116.325409 468.536865,115.877167 
	C468.727509,116.681328 468.918152,117.485489 469.108795,118.289650 
	C467.176147,118.862778 465.243469,119.435905 462.877502,120.007904 
z"/>
<path fill="#C9C9C9" opacity="1.000000" stroke="none" 
	d="
M451.092163,117.011032 
	C449.392120,121.856308 445.961334,119.790405 442.448547,118.696022 
	C442.050812,117.895035 442.072144,117.468735 442.093475,117.042435 
	C444.764648,116.383514 447.435822,115.724594 450.535156,115.385796 
	C451.006256,116.140953 451.049194,116.575996 451.092163,117.011032 
z"/>
<path fill="#BEBFBE" opacity="1.000000" stroke="none" 
	d="
M422.010040,116.906677 
	C423.858734,117.307739 425.299438,117.679848 426.740112,118.051956 
	C426.653778,118.635818 426.567444,119.219681 426.481079,119.803543 
	C422.179047,119.418358 417.877014,119.033165 413.574982,118.647972 
	C413.589783,118.057892 413.604614,117.467819 413.619415,116.877739 
	C416.280273,116.877739 418.941162,116.877739 422.010040,116.906677 
z"/>
<path fill="#B1B2B2" opacity="1.000000" stroke="none" 
	d="
M360.917511,118.951218 
	C358.369751,119.250343 355.809204,119.821686 353.281006,119.703186 
	C352.377625,119.660843 351.552460,117.949455 350.691559,116.999886 
	C351.033020,116.739754 351.374512,116.479630 351.715973,116.219498 
	C354.743622,116.642807 357.771301,117.066116 360.919861,117.969910 
	C360.999664,118.617332 360.958588,118.784279 360.917511,118.951218 
z"/>
<path fill="#F8F9F9" opacity="1.000000" stroke="none" 
	d="
M134.802582,118.189911 
	C137.230972,117.638527 139.841522,117.343864 142.452057,117.049202 
	C142.511490,117.735519 142.570923,118.421829 142.630341,119.108147 
	C140.243179,120.419189 137.763840,120.855507 134.802582,118.189911 
z"/>
<path fill="#F8F9F9" opacity="1.000000" stroke="none" 
	d="
M267.477539,120.367058 
	C263.802460,117.469131 266.623901,116.637573 267.873932,115.327507 
	C268.525391,115.564545 269.176849,115.801582 269.828308,116.038620 
	C269.131226,117.537148 268.434143,119.035683 267.477539,120.367058 
z"/>
<path fill="#F8F9F9" opacity="1.000000" stroke="none" 
	d="
M432.182373,118.704956 
	C432.763489,117.167061 433.438416,115.973320 434.641022,113.846375 
	C435.111603,116.487968 435.336914,117.752594 435.696503,119.771164 
	C434.791260,119.580055 433.533722,119.314590 432.182373,118.704956 
z"/>
<path fill="#F8F9F9" opacity="1.000000" stroke="none" 
	d="
M451.419495,117.013680 
	C451.049194,116.575996 451.006256,116.140953 450.919983,115.381561 
	C455.095490,115.394081 455.095490,115.394081 455.097595,119.961578 
	C453.891083,118.901093 452.818939,117.958710 451.419495,117.013680 
z"/>
<path fill="#F8F9F9" opacity="1.000000" stroke="none" 
	d="
M389.951477,116.692276 
	C389.689972,117.496712 389.379944,117.979568 389.017029,118.759117 
	C388.343719,118.484642 387.723328,117.913475 387.102936,117.342300 
	C388.036285,117.018440 388.969635,116.694565 389.951477,116.692276 
z"/>
<path fill="#F8F9F9" opacity="1.000000" stroke="none" 
	d="
M349.946594,118.782600 
	C349.188538,118.321091 348.451233,117.485535 347.809021,116.341721 
	C348.591858,116.825157 349.279633,117.616859 349.946594,118.782600 
z"/>
<path fill="#F8F9F9" opacity="1.000000" stroke="none" 
	d="
M441.755005,117.022919 
	C442.072144,117.468735 442.050812,117.895035 442.063202,118.639908 
	C440.676208,118.315308 439.255493,117.672127 437.834778,117.028946 
	C437.966248,116.714790 438.097687,116.400635 438.229126,116.086479 
	C439.291595,116.392120 440.354065,116.697762 441.755005,117.022919 
z"/>
<path fill="#F8F9F9" opacity="1.000000" stroke="none" 
	d="
M286.050842,119.854492 
	C285.831085,119.192665 285.899872,118.477234 285.972931,117.402275 
	C286.449432,116.711609 286.921722,116.380463 287.694977,116.023926 
	C287.990936,116.757797 287.985931,117.517052 287.940125,118.654419 
	C287.379364,119.288651 286.859406,119.544769 286.050842,119.854492 
z"/>
<path fill="#F8F9F9" opacity="1.000000" stroke="none" 
	d="
M361.195251,119.070198 
	C360.958588,118.784279 360.999664,118.617332 361.102844,118.199646 
	C361.963623,118.085281 362.768555,118.197029 363.551331,118.396088 
	C363.629730,118.416039 363.573395,118.965874 363.579590,119.269783 
	C362.877380,119.242920 362.175171,119.216049 361.195251,119.070198 
z"/>
<path fill="#F8F9F9" opacity="1.000000" stroke="none" 
	d="
M131.412903,115.955170 
	C131.797409,115.721031 132.179718,115.723061 132.559845,115.752686 
	C132.570465,115.753517 132.558029,116.049797 132.556351,116.208313 
	C132.174362,116.203934 131.792389,116.199547 131.412903,115.955170 
z"/>
<path fill="#F8F9F9" opacity="1.000000" stroke="none" 
	d="
M410.405487,115.739059 
	C410.557800,115.860069 410.579163,116.066856 410.600525,116.273636 
	C410.491882,116.124023 410.383240,115.974426 410.405487,115.739059 
z"/>
<path fill="#F8F9F9" opacity="1.000000" stroke="none" 
	d="
M401.550842,116.937180 
	C401.665924,116.923630 401.575439,117.352112 401.575439,117.352112 
	C401.575439,117.352112 401.240967,117.253220 401.222717,117.095039 
	C401.204437,116.936859 401.435760,116.950722 401.550842,116.937180 
z"/>
<path fill="#F4F6F7" opacity="1.000000" stroke="none" 
	d="
M422.073242,136.631744 
	C421.860809,136.867065 421.491150,136.921448 421.306030,136.900513 
	C418.929810,136.510086 416.738739,136.140579 414.211487,135.599854 
	C413.592651,134.802917 413.310028,134.177231 413.007477,133.283234 
	C417.351959,133.010727 421.716370,133.006516 426.546875,133.008728 
	C426.998291,133.635071 426.983612,134.254974 426.945435,135.177063 
	C425.376495,135.784973 423.831085,136.090698 422.073242,136.631744 
z"/>
<path fill="#F4F6F7" opacity="1.000000" stroke="none" 
	d="
M462.771423,138.946609 
	C462.311554,136.035355 460.633850,135.473404 457.812225,136.426239 
	C457.318573,135.656403 457.157349,134.661087 456.991119,133.341064 
	C460.687073,133.011856 464.388062,133.007324 468.551270,133.009369 
	C469.000183,134.122543 468.986816,135.229156 468.632935,136.717163 
	C467.186646,138.384720 463.775513,134.493546 464.090240,138.969727 
	C463.737854,138.961533 463.385498,138.953354 462.771423,138.946609 
z"/>
<path fill="#F4F6F7" opacity="1.000000" stroke="none" 
	d="
M316.565918,133.008652 
	C314.389771,135.681732 310.974945,135.993576 309.000580,133.380432 
	C311.364685,133.011276 313.742493,133.006851 316.565918,133.008652 
z"/>
<path fill="#F8F9F9" opacity="1.000000" stroke="none" 
	d="
M261.999329,126.449188 
	C262.443359,126.009285 262.888672,126.003654 263.667908,126.006340 
	C264.001038,128.052399 264.000183,130.090134 263.999023,132.564468 
	C263.554749,133.001450 263.110748,133.001816 262.333801,133.001633 
	C262.000763,130.961868 262.000671,128.922668 261.999329,126.449188 
z"/>
<path fill="#F4F6F7" opacity="1.000000" stroke="none" 
	d="
M323.593292,133.008713 
	C322.722198,136.126633 320.867432,134.601517 319.033020,133.315826 
	C320.383270,133.011215 321.778931,133.006836 323.593292,133.008713 
z"/>
<path fill="#F4F6F7" opacity="1.000000" stroke="none" 
	d="
M409.674561,133.009216 
	C409.367645,133.209869 408.723480,133.404877 408.033691,133.307449 
	C408.437805,133.011200 408.887573,133.007370 409.674561,133.009216 
z"/>
<path fill="#F4F6F7" opacity="1.000000" stroke="none" 
	d="
M306.675232,133.010208 
	C306.690247,133.520523 306.367706,134.024872 306.045197,134.529221 
	C305.722931,134.218918 305.400665,133.908615 305.032898,133.307159 
	C305.437531,133.012070 305.887604,133.008163 306.675232,133.010208 
z"/>
<path fill="#F8F9F9" opacity="1.000000" stroke="none" 
	d="
M145.995331,133.347137 
	C144.703888,132.505615 143.420486,131.993805 141.862091,131.372314 
	C141.862091,130.315384 141.862091,128.888763 141.862091,127.366386 
	C142.273972,127.254837 142.737411,127.013954 143.195984,127.022865 
	C148.056335,127.117310 152.940811,127.013840 157.760651,127.518539 
	C159.219986,127.671356 160.499863,129.537827 161.772842,130.548630 
	C159.650803,131.308731 158.021088,131.892487 156.190033,132.743195 
	C153.942535,134.348129 151.896408,135.686127 149.197998,137.450653 
	C148.387939,136.493744 147.195648,135.085297 145.995331,133.347137 
M150.173584,132.278061 
	C150.025238,132.384720 149.876892,132.491379 149.728546,132.598038 
	C149.933853,132.577469 150.139145,132.556915 150.173584,132.278061 
z"/>
<path fill="#F8F9F9" opacity="1.000000" stroke="none" 
	d="
M182.997162,129.106888 
	C182.575409,130.036133 182.153656,130.965363 181.404114,131.948364 
	C180.868439,132.004929 180.660522,132.007767 179.766022,132.018112 
	C178.063339,132.016830 177.047241,132.008011 176.031143,131.999207 
	C175.265167,131.976501 174.499207,131.953796 173.332336,131.696930 
	C172.780533,131.220200 172.629593,130.977646 172.478668,130.735107 
	C172.326477,131.141327 172.174286,131.547546 172.022095,131.953766 
	C171.822571,131.963562 171.623047,131.973358 171.124557,132.022797 
	C169.867020,131.991531 168.908463,131.920624 167.541122,131.819473 
	C167.848099,130.222641 168.108261,128.869354 168.277939,127.986725 
	C172.827133,127.986725 176.989731,127.986725 181.674759,128.221298 
	C182.463852,128.672882 182.730515,128.889877 182.997162,129.106888 
z"/>
<path fill="#F8F9F9" opacity="1.000000" stroke="none" 
	d="
M133.235153,133.272034 
	C132.359894,131.411423 131.718414,129.811142 131.076935,128.210861 
	C131.464249,127.996162 131.851547,127.781456 132.238861,127.566757 
	C133.637711,128.909821 135.036560,130.252899 136.435425,131.595963 
	C136.117310,131.969620 135.799194,132.343262 135.481094,132.716904 
	C136.744705,132.811386 138.008331,132.905869 139.642303,133.004990 
	C139.578506,134.184097 139.144348,135.358551 138.729416,136.480988 
	C136.783279,135.390121 135.126114,134.461243 133.235153,133.272034 
z"/>
<path fill="#F8F9F9" opacity="1.000000" stroke="none" 
	d="
M162.980408,133.382492 
	C163.436066,133.007980 163.887100,133.004791 164.676514,133.006439 
	C165.005829,136.549988 162.893631,137.601288 159.354416,137.778152 
	C160.790665,136.182068 161.883209,134.967926 162.980408,133.382492 
z"/>
<path fill="#FFFFFF" opacity="1.000000" stroke="none" 
	d="
M176.227417,132.261414 
	C177.047241,132.008011 178.063339,132.016830 179.454468,132.032104 
	C178.694214,132.200272 177.558945,132.361938 176.227417,132.261414 
z"/>
<path fill="#FFFFFF" opacity="1.000000" stroke="none" 
	d="
M172.258972,131.968018 
	C172.174286,131.547546 172.326477,131.141327 172.478668,130.735107 
	C172.629593,130.977646 172.780533,131.220200 172.949188,131.693726 
	C172.966904,131.924713 172.495834,131.982254 172.258972,131.968018 
z"/>
<path fill="#F8F9F9" opacity="1.000000" stroke="none" 
	d="
M164.193649,130.795227 
	C163.951385,130.234650 164.004715,129.736176 164.058029,129.237701 
	C164.500244,129.352036 164.942459,129.466370 165.384674,129.580704 
	C165.086197,130.006241 164.787720,130.431793 164.193649,130.795227 
z"/>
<path fill="#ECEBEB" opacity="1.000000" stroke="none" 
	d="
M182.908661,128.854156 
	C182.730515,128.889877 182.463852,128.672882 182.083466,128.221649 
	C182.253189,128.192093 182.536667,128.396744 182.908661,128.854156 
z"/>
<path fill="#737271" opacity="1.000000" stroke="none" 
	d="
M464.477814,138.942444 
	C463.775513,134.493546 467.186646,138.384720 468.617310,137.132233 
	C467.583252,137.748978 466.224335,138.332062 464.477814,138.942444 
z"/>
<path fill="#5586B1" opacity="1.000000" stroke="none" 
	d="
M374.214600,7.186171 
	C378.081970,7.195797 381.537445,7.214231 384.991882,7.283861 
	C385.246307,7.288990 385.493286,7.663288 385.741638,7.868570 
	C383.757080,10.630131 369.742462,10.989935 366.039062,8.225870 
	C368.734253,7.872369 371.268341,7.539994 374.214600,7.186171 
z"/>
<path fill="#5586B1" opacity="1.000000" stroke="none" 
	d="
M22.379536,7.163013 
	C24.733507,7.241098 26.716070,7.365282 28.700459,7.412040 
	C30.607712,7.456980 32.516853,7.421754 34.496738,7.421754 
	C33.275303,10.303128 23.654137,11.089244 17.779829,8.992292 
	C17.709124,8.538414 17.638418,8.084536 17.567715,7.630657 
	C19.048119,7.478857 20.528524,7.327057 22.379536,7.163013 
z"/>
<path fill="#5586B1" opacity="1.000000" stroke="none" 
	d="
M171.009979,10.010132 
	C167.288010,9.863230 164.039444,9.706356 160.790894,9.549483 
	C160.804688,9.043713 160.818466,8.537942 160.832260,8.032171 
	C167.032578,8.032171 173.232910,8.032171 179.433228,8.032171 
	C179.456390,8.688169 179.479568,9.344165 179.502731,10.000162 
	C176.829620,10.000162 174.156494,10.000162 171.009979,10.010132 
z"/>
<path fill="#6391B8" opacity="1.000000" stroke="none" 
	d="
M145.578445,10.023228 
	C142.569199,9.715669 139.970901,9.398649 137.372589,9.081630 
	C137.421494,8.671819 137.470398,8.262007 137.519318,7.852196 
	C142.607529,7.852196 147.695755,7.852196 152.783966,7.852196 
	C152.809937,8.419544 152.835922,8.986893 152.861893,9.554241 
	C150.571060,9.707417 148.280212,9.860592 145.578445,10.023228 
z"/>
<path fill="#6391B8" opacity="1.000000" stroke="none" 
	d="
M66.556236,7.659046 
	C70.227318,7.795325 73.535271,7.795325 76.843224,7.795325 
	C76.843224,8.254997 76.843224,8.714670 76.843224,9.174343 
	C72.341431,9.174343 67.839645,9.174343 63.337852,9.174343 
	C63.331520,8.623817 63.325184,8.073293 63.318851,7.522767 
	C64.276939,7.522767 65.235023,7.522767 66.556236,7.659046 
z"/>
<path fill="#5586B1" opacity="1.000000" stroke="none" 
	d="
M214.704193,8.109211 
	C214.929520,8.786487 214.794678,9.836884 214.616425,9.844307 
	C211.806274,9.961312 208.984146,10.051311 206.180496,9.884010 
	C205.462280,9.841151 204.798386,8.888189 204.109543,8.353346 
	C204.764694,7.821625 205.459030,6.794890 206.068253,6.843135 
	C208.833221,7.062093 211.574203,7.584146 214.704193,8.109211 
z"/>
<path fill="#5586B1" opacity="1.000000" stroke="none" 
	d="
M364.772583,8.948488 
	C361.685089,10.039792 358.649689,10.969959 356.120789,8.787636 
	C356.227966,8.103106 356.335114,7.418574 356.442291,6.734043 
	C359.250061,7.334453 362.057861,7.934863 364.772583,8.948488 
z"/>
<path fill="#FDFDFD" opacity="1.000000" stroke="none" 
	d="
M335.456116,117.366341 
	C335.533447,117.306023 335.565277,117.528816 335.565277,117.528816 
	C335.565277,117.528816 335.378784,117.426659 335.456116,117.366341 
z"/>
<path fill="#FFFFFF" opacity="1.000000" stroke="none" 
	d="
M150.259018,132.407196 
	C150.139145,132.556915 149.933853,132.577469 149.728546,132.598038 
	C149.876892,132.491379 150.025238,132.384720 150.259018,132.407196 
z"/>
</svg>